  0
SECTION
  2
HEADER
  9
$ACADVER
  1
AC1015
  9
$ACADMAINTVER
 70
     6
  9
$DWGCODEPAGE
  3
ANSI_1252
  9
$INSBASE
 10
0.0
 20
0.0
 30
0.0
  9
$EXTMIN
 10
0.0
 20
0.0
 30
0.0
  9
$EXTMAX
 10
17.0
 20
11.0
 30
0.0
  9
$LIMMIN
 10
0.0
 20
0.0
  9
$LIMMAX
 10
17.0
 20
11.0
  9
$ORTHOMODE
 70
     0
  9
$REGENMODE
 70
     1
  9
$FILLMODE
 70
     1
  9
$QTEXTMODE
 70
     0
  9
$MIRRTEXT
 70
     1
  9
$LTSCALE
 40
1.0
  9
$ATTMODE
 70
     1
  9
$TEXTSIZE
 40
0.125
  9
$TRACEWID
 40
0.05
  9
$TEXTSTYLE
  7
Standard
  9
$CLAYER
  8
0
  9
$CELTYPE
  6
ByLayer
  9
$CECOLOR
 62
   256
  9
$CELTSCALE
 40
1.0
  9
$DISPSILH
 70
     0
  9
$DIMSCALE
 40
1.0
  9
$DIMASZ
 40
0.13
  9
$DIMEXO
 40
0.05
  9
$DIMDLI
 40
0.38
  9
$DIMRND
 40
0.0
  9
$DIMDLE
 40
0.0
  9
$DIMEXE
 40
0.125
  9
$DIMTP
 40
0.0
  9
$DIMTM
 40
0.0
  9
$DIMTXT
 40
0.125
  9
$DIMCEN
 40
0.09
  9
$DIMTSZ
 40
0.0
  9
$DIMTOL
 70
     0
  9
$DIMLIM
 70
     0
  9
$DIMTIH
 70
     1
  9
$DIMTOH
 70
     1
  9
$DIMSE1
 70
     0
  9
$DIMSE2
 70
     0
  9
$DIMTAD
 70
     0
  9
$DIMZIN
 70
     0
  9
$DIMBLK
  1

  9
$DIMASO
 70
     1
  9
$DIMSHO
 70
     1
  9
$DIMPOST
  1

  9
$DIMAPOST
  1

  9
$DIMALT
 70
     0
  9
$DIMALTD
 70
     2
  9
$DIMALTF
 40
25.4
  9
$DIMLFAC
 40
1.0
  9
$DIMTOFL
 70
     0
  9
$DIMTVP
 40
0.0
  9
$DIMTIX
 70
     0
  9
$DIMSOXD
 70
     0
  9
$DIMSAH
 70
     0
  9
$DIMBLK1
  1

  9
$DIMBLK2
  1

  9
$DIMSTYLE
  2
Standard
  9
$DIMCLRD
 70
     0
  9
$DIMCLRE
 70
     0
  9
$DIMCLRT
 70
     0
  9
$DIMTFAC
 40
1.0
  9
$DIMGAP
 40
0.06
  9
$DIMJUST
 70
     0
  9
$DIMSD1
 70
     0
  9
$DIMSD2
 70
     0
  9
$DIMTOLJ
 70
     1
  9
$DIMTZIN
 70
     0
  9
$DIMALTZ
 70
     0
  9
$DIMALTTZ
 70
     0
  9
$DIMUPT
 70
     0
  9
$DIMDEC
 70
     3
  9
$DIMTDEC
 70
     3
  9
$DIMALTU
 70
     2
  9
$DIMALTTD
 70
     2
  9
$DIMTXSTY
  7
Standard
  9
$DIMAUNIT
 70
     0
  9
$DIMADEC
 70
     2
  9
$DIMALTRND
 40
0.0
  9
$DIMAZIN
 70
     0
  9
$DIMDSEP
 70
    46
  9
$DIMATFIT
 70
     3
  9
$DIMFRAC
 70
     0
  9
$DIMLDRBLK
  1

  9
$DIMLUNIT
 70
     2
  9
$DIMLWD
 70
    -2
  9
$DIMLWE
 70
    -2
  9
$DIMTMOVE
 70
     0
  9
$LUNITS
 70
     2
  9
$LUPREC
 70
     2
  9
$SKETCHINC
 40
0.1
  9
$FILLETRAD
 40
0.5
  9
$AUNITS
 70
     0
  9
$AUPREC
 70
     2
  9
$MENU
  1
.
  9
$ELEVATION
 40
0.0
  9
$PELEVATION
 40
0.0
  9
$THICKNESS
 40
0.0
  9
$LIMCHECK
 70
     0
  9
$CHAMFERA
 40
0.5
  9
$CHAMFERB
 40
0.5
  9
$CHAMFERC
 40
1.0
  9
$CHAMFERD
 40
0.0
  9
$SKPOLY
 70
     0
  9
$TDCREATE
 40
2456560.535151273
  9
$TDUCREATE
 40
2456560.82681794
  9
$TDUPDATE
 40
2456560.535151782
  9
$TDUUPDATE
 40
2456560.826818449
  9
$TDINDWG
 40
0.0000000116
  9
$TDUSRTIMER
 40
0.0000000116
  9
$USRTIMER
 70
     1
  9
$ANGBASE
 50
0.0
  9
$ANGDIR
 70
     0
  9
$PDMODE
 70
     0
  9
$PDSIZE
 40
-1.0
  9
$PLINEWID
 40
0.0
  9
$SPLFRAME
 70
     0
  9
$SPLINETYPE
 70
     6
  9
$SPLINESEGS
 70
     8
  9
$HANDSEED
  5
17B
  9
$SURFTAB1
 70
     6
  9
$SURFTAB2
 70
     6
  9
$SURFTYPE
 70
     6
  9
$SURFU
 70
     6
  9
$SURFV
 70
     6
  9
$UCSBASE
  2

  9
$UCSNAME
  2

  9
$UCSORG
 10
0.0
 20
0.0
 30
0.0
  9
$UCSXDIR
 10
1.0
 20
0.0
 30
0.0
  9
$UCSYDIR
 10
0.0
 20
1.0
 30
0.0
  9
$UCSORTHOREF
  2

  9
$UCSORTHOVIEW
 70
     0
  9
$UCSORGTOP
 10
0.0
 20
0.0
 30
0.0
  9
$UCSORGBOTTOM
 10
0.0
 20
0.0
 30
0.0
  9
$UCSORGLEFT
 10
0.0
 20
0.0
 30
0.0
  9
$UCSORGRIGHT
 10
0.0
 20
0.0
 30
0.0
  9
$UCSORGFRONT
 10
0.0
 20
0.0
 30
0.0
  9
$UCSORGBACK
 10
0.0
 20
0.0
 30
0.0
  9
$PUCSBASE
  2

  9
$PUCSNAME
  2

  9
$PUCSORG
 10
0.0
 20
0.0
 30
0.0
  9
$PUCSXDIR
 10
1.0
 20
0.0
 30
0.0
  9
$PUCSYDIR
 10
0.0
 20
1.0
 30
0.0
  9
$PUCSORTHOREF
  2

  9
$PUCSORTHOVIEW
 70
     0
  9
$PUCSORGTOP
 10
0.0
 20
0.0
 30
0.0
  9
$PUCSORGBOTTOM
 10
0.0
 20
0.0
 30
0.0
  9
$PUCSORGLEFT
 10
0.0
 20
0.0
 30
0.0
  9
$PUCSORGRIGHT
 10
0.0
 20
0.0
 30
0.0
  9
$PUCSORGFRONT
 10
0.0
 20
0.0
 30
0.0
  9
$PUCSORGBACK
 10
0.0
 20
0.0
 30
0.0
  9
$USERI1
 70
     0
  9
$USERI2
 70
     0
  9
$USERI3
 70
     0
  9
$USERI4
 70
     0
  9
$USERI5
 70
     0
  9
$USERR1
 40
0.0
  9
$USERR2
 40
0.0
  9
$USERR3
 40
0.0
  9
$USERR4
 40
0.0
  9
$USERR5
 40
0.0
  9
$WORLDVIEW
 70
     1
  9
$SHADEDGE
 70
     3
  9
$SHADEDIF
 70
    70
  9
$TILEMODE
 70
     1
  9
$MAXACTVP
 70
    64
  9
$PINSBASE
 10
0.0
 20
0.0
 30
0.0
  9
$PLIMCHECK
 70
     0
  9
$PEXTMIN
 10
1.0000000000E+20
 20
1.0000000000E+20
 30
1.0000000000E+20
  9
$PEXTMAX
 10
-1.0000000000E+20
 20
-1.0000000000E+20
 30
-1.0000000000E+20
  9
$PLIMMIN
 10
0.0
 20
0.0
  9
$PLIMMAX
 10
12.0
 20
9.0
  9
$UNITMODE
 70
     0
  9
$VISRETAIN
 70
     1
  9
$PLINEGEN
 70
     0
  9
$PSLTSCALE
 70
     1
  9
$TREEDEPTH
 70
  3020
  9
$CMLSTYLE
  2
Standard
  9
$CMLJUST
 70
     0
  9
$CMLSCALE
 40
1.0
  9
$PROXYGRAPHICS
 70
     1
  9
$MEASUREMENT
 70
     0
  9
$CELWEIGHT
370
    -1
  9
$ENDCAPS
280
     0
  9
$JOINSTYLE
280
     0
  9
$LWDISPLAY
290
     1
  9
$INSUNITS
 70
     1
  9
$HYPERLINKBASE
  1

  9
$STYLESHEET
  1

  9
$XEDIT
290
     1
  9
$CEPSNTYPE
380
     0
  9
$PSTYLEMODE
290
     1
  9
$FINGERPRINTGUID
  2
{7DD241CC-67B0-4CA5-A722-E47AF5A608F4}
  9
$VERSIONGUID
  2
{FAEB1C32-E019-11D5-929B-00C0DF256EC4}
  9
$EXTNAMES
290
     1
  9
$PSVPSCALE
 40
0.0
  9
$OLESTARTUP
290
     0
  0
ENDSEC
  0
SECTION
  2
CLASSES
  0
CLASS
  1
ACDBDICTIONARYWDFLT
  2
AcDbDictionaryWithDefault
  3
ObjectDBX Classes
 90
        0
280
     0
281
     0
  0
CLASS
  1
VISUALSTYLE
  2
AcDbVisualStyle
  3
ObjectDBX Classes
 90
     4095
280
     0
281
     0
  0
CLASS
  1
MATERIAL
  2
AcDbMaterial
  3
ObjectDBX Classes
 90
     1153
280
     0
281
     0
  0
CLASS
  1
ACDBPLACEHOLDER
  2
AcDbPlaceHolder
  3
ObjectDBX Classes
 90
        0
280
     0
281
     0
  0
CLASS
  1
LAYOUT
  2
AcDbLayout
  3
ObjectDBX Classes
 90
        0
280
     0
281
     0
  0
ENDSEC
  0
SECTION
  2
TABLES
  0
TABLE
  2
VPORT
  5
8
330
0
100
AcDbSymbolTable
 70
     1
  0
VPORT
  5
29
330
8
100
AcDbSymbolTableRecord
100
AcDbViewportTableRecord
  2
*Active
 70
     0
 10
0.0
 20
0.0
 11
1.0
 21
1.0
 12
8.5
 22
5.5
 13
0.0
 23
0.0
 14
0.5
 24
0.5
 15
0.5
 25
0.5
 16
0.0
 26
0.0
 36
1.0
 17
0.0
 27
0.0
 37
0.0
 40
11.0
 41
1.5454545455
 42
50.0
 43
0.0
 44
0.0
 50
0.0
 51
0.0
 71
     0
 72
  2000
 73
     1
 74
     3
 75
     0
 76
     0
 77
     0
 78
     0
281
     0
 65
     1
110
0.0
120
0.0
130
0.0
111
1.0
121
0.0
131
0.0
112
0.0
122
1.0
132
0.0
 79
     0
146
0.0
  0
ENDTAB
  0
TABLE
  2
LTYPE
  5
5
330
0
100
AcDbSymbolTable
 70
     6
  0
LTYPE
  5
14
330
5
100
AcDbSymbolTableRecord
100
AcDbLinetypeTableRecord
  2
ByBlock
 70
     0
  3

 72
    65
 73
     0
 40
0.0
  0
LTYPE
  5
15
330
5
100
AcDbSymbolTableRecord
100
AcDbLinetypeTableRecord
  2
ByLayer
 70
     0
  3

 72
    65
 73
     0
 40
0.0
  0
LTYPE
  5
16
330
5
100
AcDbSymbolTableRecord
100
AcDbLinetypeTableRecord
  2
Continuous
 70
     0
  3
Solid line
 72
    65
 73
     0
 40
0.0
  0
LTYPE
  5
3F
330
5
100
AcDbSymbolTableRecord
100
AcDbLinetypeTableRecord
  2
HIDDEN
 70
     0
  3
Hidden __ __ __ __ __ __ __ __ __ __ __ __ __ __
 72
    65
 73
     2
 40
0.075
 49
0.05
 74
     0
 49
-0.025
 74
     0
  0
LTYPE
  5
40
330
5
100
AcDbSymbolTableRecord
100
AcDbLinetypeTableRecord
  2
PHANTOM
 70
     0
  3
Phantom ______  __  __  ______  __  __  ______
 72
    65
 73
     6
 40
0.5
 49
0.25
 74
     0
 49
-0.05
 74
     0
 49
0.05
 74
     0
 49
-0.05
 74
     0
 49
0.05
 74
     0
 49
-0.05
 74
     0
  0
LTYPE
  5
41
330
5
100
AcDbSymbolTableRecord
100
AcDbLinetypeTableRecord
  2
CENTER
 70
     0
  3
Center ____ _ ____ _ ____ _ ____ _ ____ _ ____
 72
    65
 73
     4
 40
0.4
 49
0.25
 74
     0
 49
-0.05
 74
     0
 49
0.05
 74
     0
 49
-0.05
 74
     0
  0
LTYPE
  5
42
330
5
100
AcDbSymbolTableRecord
100
AcDbLinetypeTableRecord
  2
CENTERX2
 70
     0
  3
Center (2x) ________  __  ________  __  _____
 72
    65
 73
     4
 40
0.8
 49
0.5
 74
     0
 49
-0.1
 74
     0
 49
0.1
 74
     0
 49
-0.1
 74
     0
  0
LTYPE
  5
43
330
5
100
AcDbSymbolTableRecord
100
AcDbLinetypeTableRecord
  2
DOT2
 70
     0
  3
Dot (.5x) ........................................
 72
    65
 73
     2
 40
0.025
 49
0.0
 74
     0
 49
-0.025
 74
     0
  0
ENDTAB
  0
TABLE
  2
LAYER
  5
2
330
0
100
AcDbSymbolTable
 70
     2
  0
LAYER
  5
10
330
2
100
AcDbSymbolTableRecord
100
AcDbLayerTableRecord
  2
0
 70
     0
 62
     7
  6
Continuous
370
    -3
390
F
  0
LAYER
  5
44
330
2
100
AcDbSymbolTableRecord
100
AcDbLayerTableRecord
  2
FORMAT
 70
     0
 62
     7
  6
Continuous
370
    -3
390
F
  0
ENDTAB
  0
TABLE
  2
STYLE
  5
3
330
0
100
AcDbSymbolTable
 70
     2
  0
STYLE
  5
11
330
3
100
AcDbSymbolTableRecord
100
AcDbTextStyleTableRecord
  2
Standard
 70
     0
 40
0.0
 41
1.0
 50
0.0
 71
     0
 42
0.125
  3
txt
  4

  0
STYLE
  5
48
330
3
100
AcDbSymbolTableRecord
100
AcDbTextStyleTableRecord
  2
SLDTEXTSTYLE0
 70
     0
 40
0.0
 41
0.75
 50
0.0
 71
     0
 42
0.2
  3
TXT
  4

  0
ENDTAB
  0
TABLE
  2
VIEW
  5
6
330
0
100
AcDbSymbolTable
 70
     0
  0
ENDTAB
  0
TABLE
  2
UCS
  5
7
330
0
100
AcDbSymbolTable
 70
     0
  0
ENDTAB
  0
TABLE
  2
APPID
  5
9
330
0
100
AcDbSymbolTable
 70
     1
  0
APPID
  5
12
330
9
100
AcDbSymbolTableRecord
100
AcDbRegAppTableRecord
  2
ACAD
 70
     0
  0
ENDTAB
  0
TABLE
  2
DIMSTYLE
  5
A
330
0
100
AcDbSymbolTable
 70
     1
100
AcDbDimStyleTable
  0
DIMSTYLE
105
27
330
A
100
AcDbSymbolTableRecord
100
AcDbDimStyleTableRecord
  2
Standard
 70
     0
178
     0
340
11
  0
ENDTAB
  0
TABLE
  2
BLOCK_RECORD
  5
1
330
0
100
AcDbSymbolTable
 70
     6
  0
BLOCK_RECORD
  5
1F
330
1
100
AcDbSymbolTableRecord
100
AcDbBlockTableRecord
  2
*Model_Space
340
22
  0
BLOCK_RECORD
  5
1B
330
1
100
AcDbSymbolTableRecord
100
AcDbBlockTableRecord
  2
*Paper_Space
340
1E
  0
BLOCK_RECORD
  5
23
330
1
100
AcDbSymbolTableRecord
100
AcDbBlockTableRecord
  2
*Paper_Space0
340
26
  0
BLOCK_RECORD
  5
45
330
1
100
AcDbSymbolTableRecord
100
AcDbBlockTableRecord
  2
SW_NOTE_0
340
0
102
{BLKREFS
331
4B
102
}
  0
BLOCK_RECORD
  5
D9
330
1
100
AcDbSymbolTableRecord
100
AcDbBlockTableRecord
  2
SW_CENTERMARKSYMBOL_0
340
0
102
{BLKREFS
331
F8
102
}
  0
BLOCK_RECORD
  5
F9
330
1
100
AcDbSymbolTableRecord
100
AcDbBlockTableRecord
  2
SW_CENTERMARKSYMBOL_1
340
0
102
{BLKREFS
331
104
102
}
  0
BLOCK_RECORD
  5
105
330
1
100
AcDbSymbolTableRecord
100
AcDbBlockTableRecord
  2
SW_CENTERMARKSYMBOL_2
340
0
102
{BLKREFS
331
110
102
}
  0
BLOCK_RECORD
  5
111
330
1
100
AcDbSymbolTableRecord
100
AcDbBlockTableRecord
  2
SW_CENTERMARKSYMBOL_3
340
0
102
{BLKREFS
331
11C
102
}
  0
ENDTAB
  0
ENDSEC
  0
SECTION
  2
BLOCKS
  0
BLOCK
  5
20
330
1F
100
AcDbEntity
  8
0
100
AcDbBlockBegin
  2
*Model_Space
 70
     0
 10
0.0
 20
0.0
 30
0.0
  3
*Model_Space
  1

  0
ENDBLK
  5
21
330
1F
100
AcDbEntity
  8
0
100
AcDbBlockEnd
  0
BLOCK
  5
1C
330
1B
100
AcDbEntity
 67
     1
  8
0
100
AcDbBlockBegin
  2
*Paper_Space
 70
     0
 10
0.0
 20
0.0
 30
0.0
  3
*Paper_Space
  1

  0
ENDBLK
  5
1D
330
1B
100
AcDbEntity
 67
     1
  8
0
100
AcDbBlockEnd
  0
BLOCK
  5
24
330
23
100
AcDbEntity
  8
0
100
AcDbBlockBegin
  2
*Paper_Space0
 70
     0
 10
0.0
 20
0.0
 30
0.0
  3
*Paper_Space0
  1

  0
ENDBLK
  5
25
330
23
100
AcDbEntity
  8
0
100
AcDbBlockEnd
  0
BLOCK
  5
46
330
45
100
AcDbEntity
  8
0
100
AcDbBlockBegin
  2
SW_NOTE_0
 70
     0
 10
0.0
 20
0.0
 30
0.0
  3
SW_NOTE_0
  1

  0
MTEXT
  5
49
330
45
100
AcDbEntity
  8
0
  6
Continuous
 62
     0
370
     0
100
AcDbMText
 10
0.0
 20
0.295411357
 30
0.0
 40
0.2291666667
 41
0.0
 71
     1
 72
     1
  1
CRP142-02
  7
SLDTEXTSTYLE0
 73
     1
 44
1.0
  0
MTEXT
  5
4A
330
45
100
AcDbEntity
  8
0
  6
Continuous
 62
     0
370
     0
100
AcDbMText
 10
0.0
 20
-0.0101441948
 30
0.0
 40
0.2291666667
 41
0.0
 71
     1
 72
     1
  1
SCALE: 1:1
  7
SLDTEXTSTYLE0
 73
     1
 44
1.0
  0
ENDBLK
  5
47
330
45
100
AcDbEntity
  8
0
100
AcDbBlockEnd
  0
BLOCK
  5
DA
330
D9
100
AcDbEntity
  8
0
100
AcDbBlockBegin
  2
SW_CENTERMARKSYMBOL_0
 70
     0
 10
0.0
 20
0.0
 30
0.0
  3
SW_CENTERMARKSYMBOL_0
  1

  0
LINE
  5
DC
330
D9
100
AcDbEntity
  8
0
  6
Continuous
 62
     0
370
     0
100
AcDbLine
 10
0.0
 20
0.0
 30
0.0
 11
0.0
 21
-0.1
 31
0.0
  0
LINE
  5
DD
330
D9
100
AcDbEntity
  8
0
  6
Continuous
 62
     0
370
     0
100
AcDbLine
 10
0.0
 20
0.0
 30
0.0
 11
0.1
 21
0.0
 31
0.0
  0
LINE
  5
DE
330
D9
100
AcDbEntity
  8
0
  6
Continuous
 62
     0
370
     0
100
AcDbLine
 10
0.0
 20
0.0
 30
0.0
 11
0.0
 21
0.1
 31
0.0
  0
LINE
  5
DF
330
D9
100
AcDbEntity
  8
0
  6
Continuous
 62
     0
370
     0
100
AcDbLine
 10
0.0
 20
0.0
 30
0.0
 11
-0.1
 21
0.0
 31
0.0
  0
LINE
  5
E0
330
D9
100
AcDbEntity
  8
0
  6
Continuous
 62
     0
370
     0
100
AcDbLine
 10
0.0
 20
-0.2
 30
0.0
 11
0.0
 21
-0.2875
 31
0.0
  0
LINE
  5
E1
330
D9
100
AcDbEntity
  8
0
  6
Continuous
 62
     0
370
     0
100
AcDbLine
 10
0.2
 20
0.0
 30
0.0
 11
0.2875
 21
0.0
 31
0.0
  0
LINE
  5
E2
330
D9
100
AcDbEntity
  8
0
  6
Continuous
 62
     0
370
     0
100
AcDbLine
 10
-2.5
 20
0.0
 30
0.0
 11
-2.5
 21
-0.1
 31
0.0
  0
LINE
  5
E3
330
D9
100
AcDbEntity
  8
0
  6
Continuous
 62
     0
370
     0
100
AcDbLine
 10
-2.5
 20
0.0
 30
0.0
 11
-2.4
 21
0.0
 31
0.0
  0
LINE
  5
E4
330
D9
100
AcDbEntity
  8
0
  6
Continuous
 62
     0
370
     0
100
AcDbLine
 10
-2.5
 20
0.0
 30
0.0
 11
-2.5
 21
0.1
 31
0.0
  0
LINE
  5
E5
330
D9
100
AcDbEntity
  8
0
  6
Continuous
 62
     0
370
     0
100
AcDbLine
 10
-2.5
 20
0.0
 30
0.0
 11
-2.6
 21
0.0
 31
0.0
  0
LINE
  5
E6
330
D9
100
AcDbEntity
  8
0
  6
Continuous
 62
     0
370
     0
100
AcDbLine
 10
-2.5
 20
-0.2
 30
0.0
 11
-2.5
 21
-0.2875
 31
0.0
  0
LINE
  5
E7
330
D9
100
AcDbEntity
  8
0
  6
Continuous
 62
     0
370
     0
100
AcDbLine
 10
-2.7
 20
0.0
 30
0.0
 11
-2.7875
 21
0.0
 31
0.0
  0
LINE
  5
E8
330
D9
100
AcDbEntity
  8
0
  6
Continuous
 62
     0
370
     0
100
AcDbLine
 10
-2.5
 20
1.0
 30
0.0
 11
-2.5
 21
0.9
 31
0.0
  0
LINE
  5
E9
330
D9
100
AcDbEntity
  8
0
  6
Continuous
 62
     0
370
     0
100
AcDbLine
 10
-2.5
 20
1.0
 30
0.0
 11
-2.4
 21
1.0
 31
0.0
  0
LINE
  5
EA
330
D9
100
AcDbEntity
  8
0
  6
Continuous
 62
     0
370
     0
100
AcDbLine
 10
-2.5
 20
1.0
 30
0.0
 11
-2.5
 21
1.1
 31
0.0
  0
LINE
  5
EB
330
D9
100
AcDbEntity
  8
0
  6
Continuous
 62
     0
370
     0
100
AcDbLine
 10
-2.5
 20
1.0
 30
0.0
 11
-2.6
 21
1.0
 31
0.0
  0
LINE
  5
EC
330
D9
100
AcDbEntity
  8
0
  6
Continuous
 62
     0
370
     0
100
AcDbLine
 10
-2.5
 20
1.2
 30
0.0
 11
-2.5
 21
1.2875
 31
0.0
  0
LINE
  5
ED
330
D9
100
AcDbEntity
  8
0
  6
Continuous
 62
     0
370
     0
100
AcDbLine
 10
-2.7
 20
1.0
 30
0.0
 11
-2.7875
 21
1.0
 31
0.0
  0
LINE
  5
EE
330
D9
100
AcDbEntity
  8
0
  6
Continuous
 62
     0
370
     0
100
AcDbLine
 10
0.0
 20
1.0
 30
0.0
 11
0.0
 21
0.9
 31
0.0
  0
LINE
  5
EF
330
D9
100
AcDbEntity
  8
0
  6
Continuous
 62
     0
370
     0
100
AcDbLine
 10
0.0
 20
1.0
 30
0.0
 11
0.1
 21
1.0
 31
0.0
  0
LINE
  5
F0
330
D9
100
AcDbEntity
  8
0
  6
Continuous
 62
     0
370
     0
100
AcDbLine
 10
0.0
 20
1.0
 30
0.0
 11
0.0
 21
1.1
 31
0.0
  0
LINE
  5
F1
330
D9
100
AcDbEntity
  8
0
  6
Continuous
 62
     0
370
     0
100
AcDbLine
 10
0.0
 20
1.0
 30
0.0
 11
-0.1
 21
1.0
 31
0.0
  0
LINE
  5
F2
330
D9
100
AcDbEntity
  8
0
  6
Continuous
 62
     0
370
     0
100
AcDbLine
 10
0.2
 20
1.0
 30
0.0
 11
0.2875
 21
1.0
 31
0.0
  0
LINE
  5
F3
330
D9
100
AcDbEntity
  8
0
  6
Continuous
 62
     0
370
     0
100
AcDbLine
 10
0.0
 20
1.2
 30
0.0
 11
0.0
 21
1.2875
 31
0.0
  0
LINE
  5
F4
330
D9
100
AcDbEntity
  8
0
  6
CENTERX2
 62
     0
370
     0
100
AcDbLine
 10
-0.2
 20
1.0
 30
0.0
 11
-2.3
 21
1.0
 31
0.0
  0
LINE
  5
F5
330
D9
100
AcDbEntity
  8
0
  6
CENTERX2
 62
     0
370
     0
100
AcDbLine
 10
-0.2
 20
0.0
 30
0.0
 11
-2.3
 21
0.0
 31
0.0
  0
LINE
  5
F6
330
D9
100
AcDbEntity
  8
0
  6
CENTERX2
 62
     0
370
     0
100
AcDbLine
 10
0.0
 20
0.8
 30
0.0
 11
0.0
 21
0.2
 31
0.0
  0
LINE
  5
F7
330
D9
100
AcDbEntity
  8
0
  6
CENTERX2
 62
     0
370
     0
100
AcDbLine
 10
-2.5
 20
0.8
 30
0.0
 11
-2.5
 21
0.2
 31
0.0
  0
ENDBLK
  5
DB
330
D9
100
AcDbEntity
  8
0
100
AcDbBlockEnd
  0
BLOCK
  5
FA
330
F9
100
AcDbEntity
  8
0
100
AcDbBlockBegin
  2
SW_CENTERMARKSYMBOL_1
 70
     0
 10
0.0
 20
0.0
 30
0.0
  3
SW_CENTERMARKSYMBOL_1
  1

  0
LINE
  5
FC
330
F9
100
AcDbEntity
  8
0
  6
Continuous
 62
     0
370
     0
100
AcDbLine
 10
0.0
 20
0.0
 30
0.0
 11
0.0
 21
0.1
 31
0.0
  0
LINE
  5
FD
330
F9
100
AcDbEntity
  8
0
  6
Continuous
 62
     0
370
     0
100
AcDbLine
 10
0.0
 20
0.0
 30
0.0
 11
-0.1
 21
0.0
 31
0.0
  0
LINE
  5
FE
330
F9
100
AcDbEntity
  8
0
  6
Continuous
 62
     0
370
     0
100
AcDbLine
 10
0.0
 20
0.0
 30
0.0
 11
0.0
 21
-0.1
 31
0.0
  0
LINE
  5
FF
330
F9
100
AcDbEntity
  8
0
  6
Continuous
 62
     0
370
     0
100
AcDbLine
 10
0.0
 20
0.0
 30
0.0
 11
0.1
 21
0.0
 31
0.0
  0
LINE
  5
100
330
F9
100
AcDbEntity
  8
0
  6
Continuous
 62
     0
370
     0
100
AcDbLine
 10
0.0
 20
0.2
 30
0.0
 11
0.0
 21
0.2285
 31
0.0
  0
LINE
  5
101
330
F9
100
AcDbEntity
  8
0
  6
Continuous
 62
     0
370
     0
100
AcDbLine
 10
-0.2
 20
0.0
 30
0.0
 11
-0.2285
 21
0.0
 31
0.0
  0
LINE
  5
102
330
F9
100
AcDbEntity
  8
0
  6
Continuous
 62
     0
370
     0
100
AcDbLine
 10
0.0
 20
-0.2
 30
0.0
 11
0.0
 21
-0.2285
 31
0.0
  0
LINE
  5
103
330
F9
100
AcDbEntity
  8
0
  6
Continuous
 62
     0
370
     0
100
AcDbLine
 10
0.2
 20
0.0
 30
0.0
 11
0.2285
 21
0.0
 31
0.0
  0
ENDBLK
  5
FB
330
F9
100
AcDbEntity
  8
0
100
AcDbBlockEnd
  0
BLOCK
  5
106
330
105
100
AcDbEntity
  8
0
100
AcDbBlockBegin
  2
SW_CENTERMARKSYMBOL_2
 70
     0
 10
0.0
 20
0.0
 30
0.0
  3
SW_CENTERMARKSYMBOL_2
  1

  0
LINE
  5
108
330
105
100
AcDbEntity
  8
0
  6
Continuous
 62
     0
370
     0
100
AcDbLine
 10
0.0
 20
0.0
 30
0.0
 11
0.0
 21
0.1
 31
0.0
  0
LINE
  5
109
330
105
100
AcDbEntity
  8
0
  6
Continuous
 62
     0
370
     0
100
AcDbLine
 10
0.0
 20
0.0
 30
0.0
 11
-0.1
 21
0.0
 31
0.0
  0
LINE
  5
10A
330
105
100
AcDbEntity
  8
0
  6
Continuous
 62
     0
370
     0
100
AcDbLine
 10
0.0
 20
0.0
 30
0.0
 11
0.0
 21
-0.1
 31
0.0
  0
LINE
  5
10B
330
105
100
AcDbEntity
  8
0
  6
Continuous
 62
     0
370
     0
100
AcDbLine
 10
0.0
 20
0.0
 30
0.0
 11
0.1
 21
0.0
 31
0.0
  0
LINE
  5
10C
330
105
100
AcDbEntity
  8
0
  6
Continuous
 62
     0
370
     0
100
AcDbLine
 10
0.0
 20
0.2
 30
0.0
 11
0.0
 21
0.2285
 31
0.0
  0
LINE
  5
10D
330
105
100
AcDbEntity
  8
0
  6
Continuous
 62
     0
370
     0
100
AcDbLine
 10
-0.2
 20
0.0
 30
0.0
 11
-0.2285
 21
0.0
 31
0.0
  0
LINE
  5
10E
330
105
100
AcDbEntity
  8
0
  6
Continuous
 62
     0
370
     0
100
AcDbLine
 10
0.0
 20
-0.2
 30
0.0
 11
0.0
 21
-0.2285
 31
0.0
  0
LINE
  5
10F
330
105
100
AcDbEntity
  8
0
  6
Continuous
 62
     0
370
     0
100
AcDbLine
 10
0.2
 20
0.0
 30
0.0
 11
0.2285
 21
0.0
 31
0.0
  0
ENDBLK
  5
107
330
105
100
AcDbEntity
  8
0
100
AcDbBlockEnd
  0
BLOCK
  5
112
330
111
100
AcDbEntity
  8
0
100
AcDbBlockBegin
  2
SW_CENTERMARKSYMBOL_3
 70
     0
 10
0.0
 20
0.0
 30
0.0
  3
SW_CENTERMARKSYMBOL_3
  1

  0
LINE
  5
114
330
111
100
AcDbEntity
  8
0
  6
Continuous
 62
     0
370
     0
100
AcDbLine
 10
0.0
 20
0.0
 30
0.0
 11
0.0
 21
0.1
 31
0.0
  0
LINE
  5
115
330
111
100
AcDbEntity
  8
0
  6
Continuous
 62
     0
370
     0
100
AcDbLine
 10
0.0
 20
0.0
 30
0.0
 11
-0.1
 21
0.0
 31
0.0
  0
LINE
  5
116
330
111
100
AcDbEntity
  8
0
  6
Continuous
 62
     0
370
     0
100
AcDbLine
 10
0.0
 20
0.0
 30
0.0
 11
0.0
 21
-0.1
 31
0.0
  0
LINE
  5
117
330
111
100
AcDbEntity
  8
0
  6
Continuous
 62
     0
370
     0
100
AcDbLine
 10
0.0
 20
0.0
 30
0.0
 11
0.1
 21
0.0
 31
0.0
  0
LINE
  5
118
330
111
100
AcDbEntity
  8
0
  6
Continuous
 62
     0
370
     0
100
AcDbLine
 10
0.0
 20
0.2
 30
0.0
 11
0.0
 21
0.2285
 31
0.0
  0
LINE
  5
119
330
111
100
AcDbEntity
  8
0
  6
Continuous
 62
     0
370
     0
100
AcDbLine
 10
-0.2
 20
0.0
 30
0.0
 11
-0.2285
 21
0.0
 31
0.0
  0
LINE
  5
11A
330
111
100
AcDbEntity
  8
0
  6
Continuous
 62
     0
370
     0
100
AcDbLine
 10
0.0
 20
-0.2
 30
0.0
 11
0.0
 21
-0.2285
 31
0.0
  0
LINE
  5
11B
330
111
100
AcDbEntity
  8
0
  6
Continuous
 62
     0
370
     0
100
AcDbLine
 10
0.2
 20
0.0
 30
0.0
 11
0.2285
 21
0.0
 31
0.0
  0
ENDBLK
  5
113
330
111
100
AcDbEntity
  8
0
100
AcDbBlockEnd
  0
ENDSEC
  0
SECTION
  2
ENTITIES
  0
INSERT
  5
4B
330
1F
100
AcDbEntity
  8
0
  6
Continuous
 62
     7
370
     0
100
AcDbBlockReference
  2
SW_NOTE_0
 10
14.6204493362
 20
0.925304412
 30
0.0
  0
SPLINE
  5
4C
330
1F
100
AcDbEntity
  8
0
  6
Continuous
 62
     7
370
    15
100
AcDbSpline
210
0.0
220
0.0
230
1.0
 70
     8
 71
     3
 72
    23
 73
    19
 74
     0
 42
0.00000001
 43
0.00000001
 12
1.0
 22
0.0
 32
0.0
 13
1.0
 23
0.0
 33
0.0
 40
0.0
 40
0.0
 40
0.0
 40
0.0
 40
0.0619654006870626
 40
0.1221219056382958
 40
0.1809884968498415
 40
0.2399332164519025
 40
0.2999058311065244
 40
0.359988847476987
 40
0.4217757417416463
 40
0.4865758264211255
 40
0.5515348046197406
 40
0.6150175427599812
 40
0.6772586166616575
 40
0.7397299623627148
 40
0.8030501026629524
 40
0.866495132015699
 40
0.9319734741771482
 40
1.0
 40
1.0
 40
1.0
 40
1.0
 10
4.432730493185054
 20
8.619402764471952
 30
0.0
 10
4.432705463960667
 20
8.62034297700781
 30
0.0
 10
4.432656136165723
 20
8.622195955368491
 30
0.0
 10
4.432220793744706
 20
8.624912717534578
 30
0.0
 10
4.431562899803978
 20
8.62753337949583
 30
0.0
 10
4.430620173109178
 20
8.630066002295745
 30
0.0
 10
4.429375813263298
 20
8.632485122455831
 30
0.0
 10
4.427861113266542
 20
8.634793684668571
 30
0.0
 10
4.4261134729745
 20
8.637025533692196
 30
0.0
 10
4.424091769457537
 20
8.639118183222042
 30
0.0
 10
4.4218708434809
 20
8.641034766115052
 30
0.0
 10
4.419524613182269
 20
8.642732564753413
 30
0.0
 10
4.417042325612981
 20
8.644151427383287
 30
0.0
 10
4.414434446787161
 20
8.64531455719354
 30
0.0
 10
4.411708247204155
 20
8.646226973776074
 30
0.0
 10
4.4088584540891
 20
8.646859201312417
 30
0.0
 10
4.405892941637034
 20
8.647256149499292
 30
0.0
 10
4.403868000861811
 20
8.64730985705474
 30
0.0
 10
4.402836205632055
 20
8.64733722338574
 30
0.0
  0
SPLINE
  5
4D
330
1F
100
AcDbEntity
  8
0
  6
Continuous
 62
     7
370
    15
100
AcDbSpline
210
0.0
220
0.0
230
1.0
 70
     8
 71
     3
 72
    19
 73
    15
 74
     0
 42
0.00000001
 43
0.00000001
 12
1.0
 22
0.0
 32
0.0
 13
1.0
 23
0.0
 33
0.0
 40
0.0
 40
0.0
 40
0.0
 40
0.0
 40
0.1108026438013195
 40
0.2128292023477713
 40
0.3061013098231122
 40
0.3906473211160109
 40
0.4669244693608515
 40
0.5344810392840309
 40
0.5935869409656731
 40
0.6445570045087179
 40
0.7362004526293737
 40
0.8250240256188645
 40
0.9119855848297582
 40
0.9999999999999999
 40
0.9999999999999999
 40
0.9999999999999999
 40
0.9999999999999999
 10
4.40667305324966
 20
8.577169837458019
 30
0.0
 10
4.407974151155482
 20
8.57852803850324
 30
0.0
 10
4.410473293955438
 20
8.581136864747501
 30
0.0
 10
4.414008041073911
 20
8.584945642705533
 30
0.0
 10
4.417182804393297
 20
8.588479089191837
 30
0.0
 10
4.420018134817385
 20
8.591730528106973
 30
0.0
 10
4.422452524792417
 20
8.594747518965065
 30
0.0
 10
4.424612848884849
 20
8.597432349814977
 30
0.0
 10
4.42634377766367
 20
8.599902997464895
 30
0.0
 10
4.428222336549013
 20
8.602766801162238
 30
0.0
 10
4.430041784635557
 20
8.606263349082477
 30
0.0
 10
4.431605263219824
 20
8.610536328974645
 30
0.0
 10
4.432558603709928
 20
8.614935039709918
 30
0.0
 10
4.432672967312519
 20
8.617907560853512
 30
0.0
 10
4.432730493185054
 20
8.619402764471952
 30
0.0
  0
LINE
  5
4E
330
1F
100
AcDbEntity
  8
0
  6
Continuous
 62
     7
370
    15
100
AcDbLine
 10
4.3532332188
 20
8.5201415844
 30
0.0
 11
4.4066730532
 21
8.5771698375
 31
0.0
  0
LINE
  5
4F
330
1F
100
AcDbEntity
  8
0
  6
Continuous
 62
     7
370
    15
100
AcDbLine
 10
4.446863342
 20
8.5201415844
 30
0.0
 11
4.3532332188
 21
8.5201415844
 31
0.0
  0
LINE
  5
50
330
1F
100
AcDbEntity
  8
0
  6
Continuous
 62
     7
370
    15
100
AcDbLine
 10
4.446863342
 20
8.5342744332
 30
0.0
 11
4.446863342
 21
8.5201415844
 31
0.0
  0
LINE
  5
51
330
1F
100
AcDbEntity
  8
0
  6
Continuous
 62
     7
370
    15
100
AcDbLine
 10
4.3827410613
 20
8.5342744332
 30
0.0
 11
4.446863342
 21
8.5342744332
 31
0.0
  0
LINE
  5
52
330
1F
100
AcDbEntity
  8
0
  6
Continuous
 62
     7
370
    15
100
AcDbLine
 10
4.4172174834
 20
8.5710695258
 30
0.0
 11
4.3827410613
 21
8.5342744332
 31
0.0
  0
SPLINE
  5
53
330
1F
100
AcDbEntity
  8
0
  6
Continuous
 62
     7
370
    15
100
AcDbSpline
210
0.0
220
0.0
230
1.0
 70
     8
 71
     3
 72
    19
 73
    15
 74
     0
 42
0.00000001
 43
0.00000001
 12
1.0
 22
0.0
 32
0.0
 13
1.0
 23
0.0
 33
0.0
 40
0.0
 40
0.0
 40
0.0
 40
0.0
 40
0.0987021963061527
 40
0.1956723088106638
 40
0.2924224265079538
 40
0.391342543799825
 40
0.4444624406718913
 40
0.5042287754493163
 40
0.5703523379946784
 40
0.6425457530977471
 40
0.7222875053440183
 40
0.8079211226827114
 40
0.9004695379850144
 40
0.9999999999999999
 40
0.9999999999999999
 40
0.9999999999999999
 40
0.9999999999999999
 10
4.445096735866256
 20
8.620506893282773
 30
0.0
 10
4.445030071974269
 20
8.61858768719715
 30
0.0
 10
4.444897914047215
 20
8.614782954375475
 30
0.0
 10
4.443767426780782
 20
8.609191818046767
 30
0.0
 10
4.442001816107733
 20
8.603774754303197
 30
0.0
 10
4.439875935916813
 20
8.599415018000661
 30
0.0
 10
4.437731351504936
 20
8.595901888325185
 30
0.0
 10
4.435798772465816
 20
8.59300941962756
 30
0.0
 10
4.433536378331099
 20
8.589895031108291
 30
0.0
 10
4.430911240616033
 20
8.58656915168412
 30
0.0
 10
4.427977662972303
 20
8.583005730223547
 30
0.0
 10
4.424709073863775
 20
8.57920691938109
 30
0.0
 10
4.421082165122774
 20
8.57521196781337
 30
0.0
 10
4.418536554856855
 20
8.572483400829599
 30
0.0
 10
4.417217483393008
 20
8.571069525778231
 30
0.0
  0
SPLINE
  5
54
330
1F
100
AcDbEntity
  8
0
  6
Continuous
 62
     7
370
    15
100
AcDbSpline
210
0.0
220
0.0
230
1.0
 70
     8
 71
     3
 72
    23
 73
    19
 74
     0
 42
0.00000001
 43
0.00000001
 12
1.0
 22
0.0
 32
0.0
 13
1.0
 23
0.0
 33
0.0
 40
0.0
 40
0.0
 40
0.0
 40
0.0
 40
0.0694754602496705
 40
0.1365167976178001
 40
0.200788823609262
 40
0.263829672855826
 40
0.3257350229654199
 40
0.3872906922152918
 40
0.4495092187626034
 40
0.5129678195454411
 40
0.5762752154930608
 40
0.6375801002639252
 40
0.6979026059171025
 40
0.7571720884269854
 40
0.8165985284886558
 40
0.8766531708928198
 40
0.9372896424102404
 40
1.0
 40
1.0
 40
1.0
 40
1.0
 10
4.403471079698278
 20
8.661470072164258
 30
0.0
 10
4.404982027496993
 20
8.661434699863259
 30
0.0
 10
4.407950985948031
 20
8.661365194555344
 30
0.0
 10
4.412284136123342
 20
8.660768303639312
 30
0.0
 10
4.416409226456547
 20
8.659833437826899
 30
0.0
 10
4.420318193642448
 20
8.658521807263384
 30
0.0
 10
4.42397984972793
 20
8.656758640830608
 30
0.0
 10
4.427421701875818
 20
8.654640627497608
 30
0.0
 10
4.430684725922708
 20
8.652191027837286
 30
0.0
 10
4.433622000868069
 20
8.649307019433808
 30
0.0
 10
4.436319169341937
 20
8.64622818539954
 30
0.0
 10
4.438646029780688
 20
8.64294126006048
 30
0.0
 10
4.440638674011921
 20
8.639546406292173
 30
0.0
 10
4.442299606290708
 20
8.63601773693857
 30
0.0
 10
4.443522288926107
 20
8.632322027158542
 30
0.0
 10
4.444450564832774
 20
8.628513082166746
 30
0.0
 10
4.444975266159077
 20
8.624551475434204
 30
0.0
 10
4.445055794643245
 20
8.62187011497563
 30
0.0
 10
4.445096735866256
 20
8.620506893282773
 30
0.0
  0
SPLINE
  5
55
330
1F
100
AcDbEntity
  8
0
  6
Continuous
 62
     7
370
    15
100
AcDbSpline
210
0.0
220
0.0
230
1.0
 70
     8
 71
     3
 72
    23
 73
    19
 74
     0
 42
0.00000001
 43
0.00000001
 12
1.0
 22
0.0
 32
0.0
 13
1.0
 23
0.0
 33
0.0
 40
0.0
 40
0.0
 40
0.0
 40
0.0
 40
0.0687907943906182
 40
0.1351032894311278
 40
0.1989786743106513
 40
0.261904299780856
 40
0.3234949693679692
 40
0.3851953779660511
 40
0.4469692387407743
 40
0.5097647767031327
 40
0.5722505688473687
 40
0.6334051756611537
 40
0.6932511629217534
 40
0.7525831627856701
 40
0.8125792661534212
 40
0.8732750849201913
 40
0.9355499428950294
 40
0.9999999999999999
 40
0.9999999999999999
 40
0.9999999999999999
 40
0.9999999999999999
 10
4.358533037097834
 20
8.615538313634076
 30
0.0
 10
4.358613633672949
 20
8.617178899766666
 30
0.0
 10
4.358771923201532
 20
8.620400967269616
 30
0.0
 10
4.359513194432309
 20
8.62509875886013
 30
0.0
 10
4.360573858889194
 20
8.62958910526662
 30
0.0
 10
4.362073522433084
 20
8.6338359522733
 30
0.0
 10
4.363935974313784
 20
8.637876850195754
 30
0.0
 10
4.3661694399587
 20
8.641695748451315
 30
0.0
 10
4.368814867144268
 20
8.64527807871567
 30
0.0
 10
4.371815132264167
 20
8.64859063160132
 30
0.0
 10
4.375073740100979
 20
8.651629512341449
 30
0.0
 10
4.378589721969917
 20
8.654253734499173
 30
0.0
 10
4.382284408083551
 20
8.656470965655156
 30
0.0
 10
4.386146589145181
 20
8.658324557852946
 30
0.0
 10
4.390219839679017
 20
8.659715890369581
 30
0.0
 10
4.39446719628687
 20
8.660748238385509
 30
0.0
 10
4.398907319767556
 20
8.6613693543588
 30
0.0
 10
4.401932517485939
 20
8.661436117571567
 30
0.0
 10
4.403471079698278
 20
8.661470072164258
 30
0.0
  0
LINE
  5
56
330
1F
100
AcDbEntity
  8
0
  6
Continuous
 62
     7
370
    15
100
AcDbLine
 10
4.3708992798
 20
8.6155383136
 30
0.0
 11
4.3585330371
 21
8.6155383136
 31
0.0
  0
SPLINE
  5
57
330
1F
100
AcDbEntity
  8
0
  6
Continuous
 62
     7
370
    15
100
AcDbSpline
210
0.0
220
0.0
230
1.0
 70
     8
 71
     3
 72
    23
 73
    19
 74
     0
 42
0.00000001
 43
0.00000001
 12
1.0
 22
0.0
 32
0.0
 13
1.0
 23
0.0
 33
0.0
 40
0.0
 40
0.0
 40
0.0
 40
0.0
 40
0.0644386715952425
 40
0.1265469112716777
 40
0.1868871534365718
 40
0.2458775355894561
 40
0.3040408846912678
 40
0.3621912180726601
 40
0.4209759327916457
 40
0.480660283279667
 40
0.5406002749537578
 40
0.6006890983494533
 40
0.6619357897571962
 40
0.7244425059139832
 40
0.7890383938817438
 40
0.8563137570509947
 40
0.9263520282058637
 40
1.0
 40
1.0
 40
1.0
 40
1.0
 10
4.402836205632055
 20
8.64733722338574
 30
0.0
 10
4.401758613791255
 20
8.647309072509207
 30
0.0
 10
4.399642401341667
 20
8.647253788835808
 30
0.0
 10
4.396535352800857
 20
8.646867069781003
 30
0.0
 10
4.393571345811729
 20
8.646199910710259
 30
0.0
 10
4.39074292443563
 20
8.645287443214706
 30
0.0
 10
4.38804530294694
 20
8.644127657828001
 30
0.0
 10
4.385491600425786
 20
8.642683100950883
 30
0.0
 10
4.383087549667521
 20
8.640959341377949
 30
0.0
 10
4.380828631425572
 20
8.639004988766766
 30
0.0
 10
4.378747372407322
 20
8.636829098955115
 30
0.0
 10
4.376918755247287
 20
8.634403509857991
 30
0.0
 10
4.37532095941486
 20
8.63177250925283
 30
0.0
 10
4.373926895104632
 20
8.62894319623829
 30
0.0
 10
4.372794781321845
 20
8.625889897813702
 30
0.0
 10
4.371929696659204
 20
8.622623452740928
 30
0.0
 10
4.371245175134731
 20
8.619158044022875
 30
0.0
 10
4.371016493221155
 20
8.616764930445845
 30
0.0
 10
4.370899279779037
 20
8.615538313634076
 30
0.0
  0
LINE
  5
58
330
1F
100
AcDbEntity
  8
0
  6
Continuous
 62
     7
370
    15
100
AcDbLine
 10
4.2366372164
 20
8.5660733429
 30
0.0
 11
4.1836390335
 21
8.5660733429
 31
0.0
  0
LINE
  5
59
330
1F
100
AcDbEntity
  8
0
  6
Continuous
 62
     7
370
    15
100
AcDbLine
 10
4.2366372164
 20
8.5802061917
 30
0.0
 11
4.2366372164
 21
8.5660733429
 31
0.0
  0
LINE
  5
5A
330
1F
100
AcDbEntity
  8
0
  6
Continuous
 62
     7
370
    15
100
AcDbLine
 10
4.1836390335
 20
8.5802061917
 30
0.0
 11
4.2366372164
 21
8.5802061917
 31
0.0
  0
LINE
  5
5B
330
1F
100
AcDbEntity
  8
0
  6
Continuous
 62
     7
370
    15
100
AcDbLine
 10
4.1836390335
 20
8.5660733429
 30
0.0
 11
4.1836390335
 21
8.5802061917
 31
0.0
  0
LINE
  5
5C
330
1F
100
AcDbEntity
  8
0
  6
Continuous
 62
     7
370
    15
100
AcDbLine
 10
4.0370107274
 20
8.5519404941
 30
0.0
 11
3.9716463018
 21
8.5519404941
 31
0.0
  0
LINE
  5
5D
330
1F
100
AcDbEntity
  8
0
  6
Continuous
 62
     7
370
    15
100
AcDbLine
 10
4.0370107274
 20
8.5201415844
 30
0.0
 11
4.0370107274
 21
8.5519404941
 31
0.0
  0
LINE
  5
5E
330
1F
100
AcDbEntity
  8
0
  6
Continuous
 62
     7
370
    15
100
AcDbLine
 10
4.0493769701
 20
8.5201415844
 30
0.0
 11
4.0370107274
 21
8.5201415844
 31
0.0
  0
LINE
  5
5F
330
1F
100
AcDbEntity
  8
0
  6
Continuous
 62
     7
370
    15
100
AcDbLine
 10
4.0493769701
 20
8.5519404941
 30
0.0
 11
4.0493769701
 21
8.5201415844
 31
0.0
  0
LINE
  5
60
330
1F
100
AcDbEntity
  8
0
  6
Continuous
 62
     7
370
    15
100
AcDbLine
 10
4.0652764249
 20
8.5519404941
 30
0.0
 11
4.0493769701
 21
8.5519404941
 31
0.0
  0
LINE
  5
61
330
1F
100
AcDbEntity
  8
0
  6
Continuous
 62
     7
370
    15
100
AcDbLine
 10
4.0652764249
 20
8.5660733429
 30
0.0
 11
4.0652764249
 21
8.5519404941
 31
0.0
  0
LINE
  5
62
330
1F
100
AcDbEntity
  8
0
  6
Continuous
 62
     7
370
    15
100
AcDbLine
 10
4.0493769701
 20
8.5660733429
 30
0.0
 11
4.0652764249
 21
8.5660733429
 31
0.0
  0
LINE
  5
63
330
1F
100
AcDbEntity
  8
0
  6
Continuous
 62
     7
370
    15
100
AcDbLine
 10
4.0493769701
 20
8.6614700722
 30
0.0
 11
4.0493769701
 21
8.5660733429
 31
0.0
  0
LINE
  5
64
330
1F
100
AcDbEntity
  8
0
  6
Continuous
 62
     7
370
    15
100
AcDbLine
 10
4.046865077
 20
8.6614700722
 30
0.0
 11
4.0493769701
 21
8.6614700722
 31
0.0
  0
LINE
  5
65
330
1F
100
AcDbEntity
  8
0
  6
Continuous
 62
     7
370
    15
100
AcDbLine
 10
3.9716463018
 20
8.5519404941
 30
0.0
 11
4.046865077
 21
8.6614700722
 31
0.0
  0
LINE
  5
66
330
1F
100
AcDbEntity
  8
0
  6
Continuous
 62
     7
370
    15
100
AcDbLine
 10
3.7773196311
 20
8.5201415844
 30
0.0
 11
3.7649533884
 21
8.5201415844
 31
0.0
  0
LINE
  5
67
330
1F
100
AcDbEntity
  8
0
  6
Continuous
 62
     7
370
    15
100
AcDbLine
 10
3.7773196311
 20
8.5837394039
 30
0.0
 11
3.7773196311
 21
8.5201415844
 31
0.0
  0
LINE
  5
68
330
1F
100
AcDbEntity
  8
0
  6
Continuous
 62
     7
370
    15
100
AcDbLine
 10
3.7871739807
 20
8.5837394039
 30
0.0
 11
3.7773196311
 21
8.5837394039
 31
0.0
  0
SPLINE
  5
69
330
1F
100
AcDbEntity
  8
0
  6
Continuous
 62
     7
370
    15
100
AcDbSpline
210
0.0
220
0.0
230
1.0
 70
     8
 71
     3
 72
    15
 73
    11
 74
     0
 42
0.00000001
 43
0.00000001
 12
1.0
 22
0.0
 32
0.0
 13
1.0
 23
0.0
 33
0.0
 40
0.0
 40
0.0
 40
0.0
 40
0.0
 40
0.0751731173762211
 40
0.164746257511801
 40
0.2680168809877798
 40
0.3859118756529554
 40
0.5177894792733981
 40
0.6636909770022813
 40
0.8244132205366415
 40
1.0
 40
1.0
 40
1.0
 40
1.0
 10
3.822257673681722
 20
8.586002867944595
 30
0.0
 10
3.821394392815919
 20
8.585819286012393
 30
0.0
 10
3.819502462604871
 20
8.585416955533994
 30
0.0
 10
3.816386607401023
 20
8.584967803689706
 30
0.0
 10
3.812758836301424
 20
8.58458443358398
 30
0.0
 10
3.808624100871677
 20
8.58429698722252
 30
0.0
 10
3.803986112488937
 20
8.584050909724017
 30
0.0
 10
3.798842362200365
 20
8.583855315476352
 30
0.0
 10
3.793182752862597
 20
8.583747840915914
 30
0.0
 10
3.789235066087874
 20
8.58374229789235
 30
0.0
 10
3.787173980717862
 20
8.58373940388241
 30
0.0
  0
SPLINE
  5
6A
330
1F
100
AcDbEntity
  8
0
  6
Continuous
 62
     7
370
    15
100
AcDbSpline
210
0.0
220
0.0
230
1.0
 70
     8
 71
     3
 72
    23
 73
    19
 74
     0
 42
0.00000001
 43
0.00000001
 12
1.0
 22
0.0
 32
0.0
 13
1.0
 23
0.0
 33
0.0
 40
0.0
 40
0.0
 40
0.0
 40
0.0
 40
0.0701188944197149
 40
0.1371923527859712
 40
0.2020161807247511
 40
0.2646314069747434
 40
0.3261165471458178
 40
0.3860103046676407
 40
0.4458118469576801
 40
0.5052976967309599
 40
0.5646332777264885
 40
0.6242826253338405
 40
0.6839020319037509
 40
0.7439527709382697
 40
0.8053877310076346
 40
0.8683880308962793
 40
0.9330840282524765
 40
1.0
 40
1.0
 40
1.0
 40
1.0
 10
3.849750481071183
 20
8.620976148027372
 30
0.0
 10
3.849733889546421
 20
8.619843164689282
 30
0.0
 10
3.849701427107626
 20
8.617626406266233
 30
0.0
 10
3.849311809574995
 20
8.614383383109196
 30
0.0
 10
3.848786998881345
 20
8.611284233891418
 30
0.0
 10
3.847980028317282
 20
8.60833583032963
 30
0.0
 10
3.846923112053565
 20
8.605555681885898
 30
0.0
 10
3.845683267453341
 20
8.602901302672484
 30
0.0
 10
3.844187852871854
 20
8.600417851022932
 30
0.0
 10
3.842469552489551
 20
8.598096310962237
 30
0.0
 10
3.840558072395342
 20
8.595934503390813
 30
0.0
 10
3.83846150002734
 20
8.593948094158817
 30
0.0
 10
3.836188299535203
 20
8.592148710756355
 30
0.0
 10
3.833745695280229
 20
8.590532319272876
 30
0.0
 10
3.831109874459893
 20
8.58913640275722
 30
0.0
 10
3.828320813295682
 20
8.587886115161727
 30
0.0
 10
3.825354269342063
 20
8.586836073404305
 30
0.0
 10
3.823301414461143
 20
8.586283708781218
 30
0.0
 10
3.822257673681722
 20
8.586002867944595
 30
0.0
  0
SPLINE
  5
6B
330
1F
100
AcDbEntity
  8
0
  6
Continuous
 62
     7
370
    15
100
AcDbSpline
210
0.0
220
0.0
230
1.0
 70
     8
 71
     3
 72
    23
 73
    19
 74
     0
 42
0.00000001
 43
0.00000001
 12
1.0
 22
0.0
 32
0.0
 13
1.0
 23
0.0
 33
0.0
 40
0.0
 40
0.0
 40
0.0
 40
0.0
 40
0.0624813386352046
 40
0.1234903826872903
 40
0.1834110942063115
 40
0.2431532209997794
 40
0.3021267353720876
 40
0.3617096708329063
 40
0.42184229169488
 40
0.4829319014466686
 40
0.5445522544313239
 40
0.6056807199653585
 40
0.6676797383436879
 40
0.7299843875380634
 40
0.7945509212861293
 40
0.8603456197120827
 40
0.9289073562657088
 40
1.0
 40
1.0
 40
1.0
 40
1.0
 10
3.823361802492544
 20
8.65586661844934
 30
0.0
 10
3.824314303822673
 20
8.655605911763052
 30
0.0
 10
3.826196861980632
 20
8.655090641617404
 30
0.0
 10
3.828909501472822
 20
8.654058605260095
 30
0.0
 10
3.831490361531104
 20
8.652834897969722
 30
0.0
 10
3.833948296902962
 20
8.651440254668506
 30
0.0
 10
3.836253103323075
 20
8.649814838755626
 30
0.0
 10
3.838439167928036
 20
8.64802453884463
 30
0.0
 10
3.840487198648339
 20
8.646028020396896
 30
0.0
 10
3.842385678643779
 20
8.643847676308415
 30
0.0
 10
3.844129174611651
 20
8.641520108990246
 30
0.0
 10
3.845630343222957
 20
8.639010572379716
 30
0.0
 10
3.846887320665211
 20
8.636361308465549
 30
0.0
 10
3.847965402219706
 20
8.633574159994787
 30
0.0
 10
3.848741325624005
 20
8.630625722062057
 30
0.0
 10
3.849325849234456
 20
8.627536481417405
 30
0.0
 10
3.849696858195701
 20
8.624306769204747
 30
0.0
 10
3.84973239212307
 20
8.622099687806287
 30
0.0
 10
3.849750481071183
 20
8.620976148027372
 30
0.0
  0
SPLINE
  5
6C
330
1F
100
AcDbEntity
  8
0
  6
Continuous
 62
     7
370
    15
100
AcDbSpline
210
0.0
220
0.0
230
1.0
 70
     8
 71
     3
 72
    15
 73
    11
 74
     0
 42
0.00000001
 43
0.00000001
 12
1.0
 22
0.0
 32
0.0
 13
1.0
 23
0.0
 33
0.0
 40
0.0
 40
0.0
 40
0.0
 40
0.0
 40
0.1769557521312497
 40
0.3390550796425811
 40
0.4863182249420762
 40
0.6187809228353784
 40
0.7356188277673814
 40
0.8387424767201108
 40
0.9264570678763173
 40
0.9999999999999999
 40
0.9999999999999999
 40
0.9999999999999999
 40
0.9999999999999999
 10
3.791976941044936
 20
8.65793685996963
 30
0.0
 10
3.793835638137521
 20
8.65793481681054
 30
0.0
 10
3.797396984311171
 20
8.65793090202699
 30
0.0
 10
3.802503876268214
 20
8.657812211246453
 30
0.0
 10
3.807142054678699
 20
8.6576536800617
 30
0.0
 10
3.811301518494712
 20
8.657433920487167
 30
0.0
 10
3.814995065663475
 20
8.657174212209707
 30
0.0
 10
3.818205982968458
 20
8.656809958690909
 30
0.0
 10
3.820959508808373
 20
8.656429632094323
 30
0.0
 10
3.822609369022802
 20
8.656042962546314
 30
0.0
 10
3.823361802492544
 20
8.65586661844934
 30
0.0
  0
LINE
  5
6D
330
1F
100
AcDbEntity
  8
0
  6
Continuous
 62
     7
370
    15
100
AcDbLine
 10
3.7649533884
 20
8.65793686
 30
0.0
 11
3.791976941
 21
8.65793686
 31
0.0
  0
LINE
  5
6E
330
1F
100
AcDbEntity
  8
0
  6
Continuous
 62
     7
370
    15
100
AcDbLine
 10
3.7649533884
 20
8.5201415844
 30
0.0
 11
3.7649533884
 21
8.65793686
 31
0.0
  0
SPLINE
  5
6F
330
1F
100
AcDbEntity
  8
0
  6
Continuous
 62
     7
370
    15
100
AcDbSpline
210
0.0
220
0.0
230
1.0
 70
     8
 71
     3
 72
    23
 73
    19
 74
     0
 42
0.00000001
 43
0.00000001
 12
1.0
 22
0.0
 32
0.0
 13
1.0
 23
0.0
 33
0.0
 40
0.0
 40
0.0
 40
0.0
 40
0.0
 40
0.0645578459297189
 40
0.1270135315497586
 40
0.1879548102020905
 40
0.2480139127896339
 40
0.3077476818488372
 40
0.3682345146974851
 40
0.4294698439426692
 40
0.492743436746585
 40
0.5562577687060832
 40
0.6182167855431434
 40
0.6796554755875547
 40
0.7412455456206293
 40
0.8034152647056966
 40
0.8668154615439922
 40
0.9323283119492652
 40
1.0
 40
1.0
 40
1.0
 40
1.0
 10
3.485829625024343
 20
8.5898397155622
 30
0.0
 10
3.485890853117141
 20
8.592318276725242
 30
0.0
 10
3.486011315567279
 20
8.597194691078082
 30
0.0
 10
3.487034772081915
 20
8.604351145931984
 30
0.0
 10
3.488681181380792
 20
8.611207500217544
 30
0.0
 10
3.491019641561697
 20
8.61775095472888
 30
0.0
 10
3.493984419172146
 20
8.624015926391559
 30
0.0
 10
3.497646884283938
 20
8.629954556503636
 30
0.0
 10
3.501964488308403
 20
8.635604824206649
 30
0.0
 10
3.506903368925868
 20
8.640880995517575
 30
0.0
 10
3.512319405748693
 20
8.64570537947908
 30
0.0
 10
3.51811935905141
 20
8.649949718209331
 30
0.0
 10
3.524291876648758
 20
8.653481903878587
 30
0.0
 10
3.530768957423386
 20
8.656434508698512
 30
0.0
 10
3.537599102366955
 20
8.658703975751104
 30
0.0
 10
3.544767738946696
 20
8.660292683888425
 30
0.0
 10
3.55226139700895
 20
8.661281546734484
 30
0.0
 10
3.557374090932152
 20
8.661406554919635
 30
0.0
 10
3.559971874671022
 20
8.66147007216426
 30
0.0
  0
SPLINE
  5
70
330
1F
100
AcDbEntity
  8
0
  6
Continuous
 62
     7
370
    15
100
AcDbSpline
210
0.0
220
0.0
230
1.0
 70
     8
 71
     3
 72
    15
 73
    11
 74
     0
 42
0.00000001
 43
0.00000001
 12
1.0
 22
0.0
 32
0.0
 13
1.0
 23
0.0
 33
0.0
 40
0.0
 40
0.0
 40
0.0
 40
0.0
 40
0.1243285095938499
 40
0.247156016361187
 40
0.3687797492913395
 40
0.4907338624016481
 40
0.6136137718478439
 40
0.7389575757222155
 40
0.8673105751912625
 40
1.0
 40
1.0
 40
1.0
 40
1.0
 10
3.503302463455596
 20
8.540705983480633
 30
0.0
 10
3.501907359380801
 20
8.542420203516741
 30
0.0
 10
3.499133994151362
 20
8.545827948020996
 30
0.0
 10
3.495585738893442
 20
8.551351018149282
 30
0.0
 10
3.492548433570243
 20
8.557117483065653
 30
0.0
 10
3.490092688657716
 20
8.563157637741964
 30
0.0
 10
3.488172896013833
 20
8.569457928578204
 30
0.0
 10
3.486842927703607
 20
8.576021531507758
 30
0.0
 10
3.485978691306843
 20
8.58284231663383
 30
0.0
 10
3.485879861039868
 20
8.587481560281857
 30
0.0
 10
3.485829625024343
 20
8.5898397155622
 30
0.0
  0
SPLINE
  5
71
330
1F
100
AcDbEntity
  8
0
  6
Continuous
 62
     7
370
    15
100
AcDbSpline
210
0.0
220
0.0
230
1.0
 70
     8
 71
     3
 72
    23
 73
    19
 74
     0
 42
0.00000001
 43
0.00000001
 12
1.0
 22
0.0
 32
0.0
 13
1.0
 23
0.0
 33
0.0
 40
0.0
 40
0.0
 40
0.0
 40
0.0
 40
0.0696628008990773
 40
0.1377495622582728
 40
0.2039167435177826
 40
0.2687798623293367
 40
0.3324137064772239
 40
0.3947535404471396
 40
0.4561800316591685
 40
0.5169956491967197
 40
0.5773959379659519
 40
0.6371983435092756
 40
0.6969991842614551
 40
0.7567561942255592
 40
0.8165539052726081
 40
0.8769479965978707
 40
0.9381317879205955
 40
1.0
 40
1.0
 40
1.0
 40
1.0
 10
3.560137493992645
 20
8.516608372184448
 30
0.0
 10
3.558655459856515
 20
8.516618686852
 30
0.0
 10
3.555724920876328
 20
8.51663908282979
 30
0.0
 10
3.551398198371913
 20
8.51696948312156
 30
0.0
 10
3.547186010151377
 20
8.517420260165261
 30
0.0
 10
3.543100394959774
 20
8.518099005482739
 30
0.0
 10
3.53911905735952
 20
8.518899963752578
 30
0.0
 10
3.53527808946618
 20
8.519973635273255
 30
0.0
 10
3.531539695357579
 20
8.521176358367592
 30
0.0
 10
3.527918894542771
 20
8.522589940522897
 30
0.0
 10
3.524412607149205
 20
8.524185065819642
 30
0.0
 10
3.521032142134719
 20
8.525987883099214
 30
0.0
 10
3.517779054244996
 20
8.527983232101628
 30
0.0
 10
3.514621360510537
 20
8.530127130149802
 30
0.0
 10
3.511605707609945
 20
8.532488441247065
 30
0.0
 10
3.508705962517528
 20
8.535034371739334
 30
0.0
 10
3.505905865028055
 20
8.537756340666553
 30
0.0
 10
3.504173475855151
 20
8.539719130168221
 30
0.0
 10
3.503302463455596
 20
8.540705983480633
 30
0.0
  0
SPLINE
  5
72
330
1F
100
AcDbEntity
  8
0
  6
Continuous
 62
     7
370
    15
100
AcDbSpline
210
0.0
220
0.0
230
1.0
 70
     8
 71
     3
 72
    23
 73
    19
 74
     0
 42
0.00000001
 43
0.00000001
 12
1.0
 22
0.0
 32
0.0
 13
1.0
 23
0.0
 33
0.0
 40
0.0
 40
0.0
 40
0.0
 40
0.0
 40
0.0616742388774258
 40
0.123053061634806
 40
0.1834750007317018
 40
0.2437265005106113
 40
0.3042789165122537
 40
0.3648629209606827
 40
0.4259462039686194
 40
0.4873912299654077
 40
0.5492203840754762
 40
0.6111435886926027
 40
0.6735285303101514
 40
0.736961456657304
 40
0.8007852828728401
 40
0.866012595641615
 40
0.9321007477905788
 40
1.0
 40
1.0
 40
1.0
 40
1.0
 10
3.620091688420265
 20
8.545508943807707
 30
0.0
 10
3.619220896692661
 20
8.544385382708365
 30
0.0
 10
3.617483484280637
 20
8.54214364230387
 30
0.0
 10
3.614670176525268
 20
8.538983338771427
 30
0.0
 10
3.611706503399453
 20
8.536010738948626
 30
0.0
 10
3.608570451824378
 20
8.53324980897904
 30
0.0
 10
3.605298097824784
 20
8.530645302459165
 30
0.0
 10
3.601830683952947
 20
8.528271214613666
 30
0.0
 10
3.598213792909433
 20
8.526094408145855
 30
0.0
 10
3.594459679566692
 20
8.524101222141441
 30
0.0
 10
3.590572332606076
 20
8.522332826589297
 30
0.0
 10
3.586556409970565
 20
8.520818898723471
 30
0.0
 10
3.582429221958596
 20
8.519514769214314
 30
0.0
 10
3.578190579895129
 20
8.518441858319674
 30
0.0
 10
3.573831691831077
 20
8.517604414072688
 30
0.0
 10
3.569368287339219
 20
8.517044584354391
 30
0.0
 10
3.564790733196737
 20
8.516661044416011
 30
0.0
 10
3.561702488270527
 20
8.516626087100313
 30
0.0
 10
3.560137493992645
 20
8.516608372184448
 30
0.0
  0
LINE
  5
73
330
1F
100
AcDbEntity
  8
0
  6
Continuous
 62
     7
370
    15
100
AcDbLine
 10
3.6092712261
 20
8.5537071002
 30
0.0
 11
3.6200916884
 21
8.5455089438
 31
0.0
  0
SPLINE
  5
74
330
1F
100
AcDbEntity
  8
0
  6
Continuous
 62
     7
370
    15
100
AcDbSpline
210
0.0
220
0.0
230
1.0
 70
     8
 71
     3
 72
    15
 73
    11
 74
     0
 42
0.00000001
 43
0.00000001
 12
1.0
 22
0.0
 32
0.0
 13
1.0
 23
0.0
 33
0.0
 40
0.0
 40
0.0
 40
0.0
 40
0.0
 40
0.1285151895116617
 40
0.2529486363526577
 40
0.3747547340060044
 40
0.4959397538670499
 40
0.6171806414298925
 40
0.7409094692781376
 40
0.8678111481862024
 40
1.0
 40
1.0
 40
1.0
 40
1.0
 10
3.560054684331833
 20
8.530741220962968
 30
0.0
 10
3.562460302008746
 20
8.530807708354734
 30
0.0
 10
3.567195133068585
 20
8.530938571446843
 30
0.0
 10
3.574138756152888
 20
8.532047203302074
 30
0.0
 10
3.580785833539848
 20
8.53384475912235
 30
0.0
 10
3.587136722773763
 20
8.536360425355388
 30
0.0
 10
3.593173519868441
 20
8.539630712280694
 30
0.0
 10
3.598905671849111
 20
8.543595195643189
 30
0.0
 10
3.604338017144542
 20
8.548291586696758
 30
0.0
 10
3.607604603059361
 20
8.551877536628144
 30
0.0
 10
3.609271226074212
 20
8.553707100228058
 30
0.0
  0
SPLINE
  5
75
330
1F
100
AcDbEntity
  8
0
  6
Continuous
 62
     7
370
    15
100
AcDbSpline
210
0.0
220
0.0
230
1.0
 70
     8
 71
     3
 72
    23
 73
    19
 74
     0
 42
0.00000001
 43
0.00000001
 12
1.0
 22
0.0
 32
0.0
 13
1.0
 23
0.0
 33
0.0
 40
0.0
 40
0.0
 40
0.0
 40
0.0
 40
0.064323216579842
 40
0.1262901037035559
 40
0.1867264692161329
 40
0.2461464323353445
 40
0.3055756426461386
 40
0.3654293856180522
 40
0.4263263089482599
 40
0.4888399064006412
 40
0.5517249718140474
 40
0.6139185964661592
 40
0.6754837657683965
 40
0.7373338970992858
 40
0.8002290443945265
 40
0.864502298123323
 40
0.9310407391556974
 40
1.0
 40
1.0
 40
1.0
 40
1.0
 10
3.498195867705546
 20
8.588901206073002
 30
0.0
 10
3.498245545619873
 20
8.58686453993431
 30
0.0
 10
3.498343081615206
 20
8.582865816121341
 30
0.0
 10
3.499211126264043
 20
8.577008705470112
 30
0.0
 10
3.500530224346273
 20
8.571397655321281
 30
0.0
 10
3.502507215564214
 20
8.56606774026967
 30
0.0
 10
3.504944973460296
 20
8.560953237983922
 30
0.0
 10
3.508025312495938
 20
8.556140684700205
 30
0.0
 10
3.511592892707127
 20
8.551557355388727
 30
0.0
 10
3.515698184811896
 20
8.5473115700443
 30
0.0
 10
3.520202350795724
 20
8.543433076922328
 30
0.0
 10
3.525034945740367
 20
8.540017699697474
 30
0.0
 10
3.530183933448402
 20
8.537170657080686
 30
0.0
 10
3.535592462195905
 20
8.534801525328076
 30
0.0
 10
3.541302151720261
 20
8.532980394318013
 30
0.0
 10
3.54730273449246
 20
8.531698342211588
 30
0.0
 10
3.553581159502306
 20
8.530862035891051
 30
0.0
 10
3.557871293356244
 20
8.530781969431636
 30
0.0
 10
3.560054684331833
 20
8.530741220962968
 30
0.0
  0
SPLINE
  5
76
330
1F
100
AcDbEntity
  8
0
  6
Continuous
 62
     7
370
    15
100
AcDbSpline
210
0.0
220
0.0
230
1.0
 70
     8
 71
     3
 72
    31
 73
    27
 74
     0
 42
0.00000001
 43
0.00000001
 12
1.0
 22
0.0
 32
0.0
 13
1.0
 23
0.0
 33
0.0
 40
0.0
 40
0.0
 40
0.0
 40
0.0
 40
0.0439549089061946
 40
0.0875018747976049
 40
0.1304626267314906
 40
0.1727520205665175
 40
0.2154030673796034
 40
0.2576498297432396
 40
0.3001527489572939
 40
0.3431214895020868
 40
0.3859251632064337
 40
0.4276857274028018
 40
0.4688179504865898
 40
0.5094918001549961
 40
0.5498830310733492
 40
0.5899800229668862
 40
0.6304052300068399
 40
0.6708686260826384
 40
0.7113839438381759
 40
0.7516272580635844
 40
0.7917755768651916
 40
0.8324589188037425
 40
0.8733190450172883
 40
0.9145429556263492
 40
0.9569235582098846
 40
1.0
 40
1.0
 40
1.0
 40
1.0
 10
3.559198984503446
 20
8.64733722338574
 30
0.0
 10
3.55781775224595
 20
8.64732131934992
 30
0.0
 10
3.555068106869143
 20
8.647289658882734
 30
0.0
 10
3.550987458306131
 20
8.646871976788052
 30
0.0
 10
3.546983007474188
 20
8.646284921274486
 30
0.0
 10
3.543057359197864
 20
8.645413845557027
 30
0.0
 10
3.539215510436476
 20
8.644312561341376
 30
0.0
 10
3.535432345000821
 20
8.64299660016328
 30
0.0
 10
3.531762636347392
 20
8.641368456861706
 30
0.0
 10
3.528155619094863
 20
8.639568919068127
 30
0.0
 10
3.524699744646229
 20
8.63753634250343
 30
0.0
 10
3.521429860875468
 20
8.635319281405732
 30
0.0
 10
3.518357893634477
 20
8.632942545325426
 30
0.0
 10
3.515481412841832
 20
8.630397226176694
 30
0.0
 10
3.512797477867994
 20
8.627694786787893
 30
0.0
 10
3.51032553649771
 20
8.624806426882811
 30
0.0
 10
3.508074142392774
 20
8.621741380681344
 30
0.0
 10
3.505998668965081
 20
8.618540065423142
 30
0.0
 10
3.504139899935367
 20
8.615211805909958
 30
0.0
 10
3.502583605471158
 20
8.611744283451749
 30
0.0
 10
3.501205451053614
 20
8.608196877820605
 30
0.0
 10
3.500114929689596
 20
8.60452950928404
 30
0.0
 10
3.499251759735606
 20
8.60076798306974
 30
0.0
 10
3.498656182441375
 20
8.59690220401659
 30
0.0
 10
3.498243250504591
 20
8.592940248126935
 30
0.0
 10
3.498211747477003
 20
8.590254842118494
 30
0.0
 10
3.498195867705546
 20
8.588901206073002
 30
0.0
  0
SPLINE
  5
77
330
1F
100
AcDbEntity
  8
0
  6
Continuous
 62
     7
370
    15
100
AcDbSpline
210
0.0
220
0.0
230
1.0
 70
     8
 71
     3
 72
    19
 73
    15
 74
     0
 42
0.00000001
 43
0.00000001
 12
1.0
 22
0.0
 32
0.0
 13
1.0
 23
0.0
 33
0.0
 40
0.0
 40
0.0
 40
0.0
 40
0.0
 40
0.0631632593634705
 40
0.1254749410306406
 40
0.1871212198160329
 40
0.2482943461142991
 40
0.3092948562551212
 40
0.369850066067093
 40
0.4309733755473821
 40
0.4924559896728172
 40
0.6161479662918555
 40
0.740843698467363
 40
0.8681826486700431
 40
1.0
 40
1.0
 40
1.0
 40
1.0
 10
3.609271226074212
 20
8.624371344120648
 30
0.0
 10
3.608499340705857
 20
8.62529126419274
 30
0.0
 10
3.606965976657631
 20
8.627118701819644
 30
0.0
 10
3.60449907892047
 20
8.629684825617867
 30
0.0
 10
3.601928148097787
 20
8.632088969768368
 30
0.0
 10
3.599254166947551
 20
8.634342587076594
 30
0.0
 10
3.596429004763025
 20
8.636366869192134
 30
0.0
 10
3.593521099303737
 20
8.638267306315871
 30
0.0
 10
3.590481806185368
 20
8.639970760565577
 30
0.0
 10
3.586278981986728
 20
8.642036232459906
 30
0.0
 10
3.580781035204037
 20
8.644191592893458
 30
0.0
 10
3.573859978547615
 20
8.645998806724174
 30
0.0
 10
3.566635132150579
 20
8.647149246711745
 30
0.0
 10
3.561706092795186
 20
8.647273846769192
 30
0.0
 10
3.559198984503446
 20
8.64733722338574
 30
0.0
  0
LINE
  5
78
330
1F
100
AcDbEntity
  8
0
  6
Continuous
 62
     7
370
    15
100
AcDbLine
 10
3.6200916884
 20
8.6326523102
 30
0.0
 11
3.6092712261
 21
8.6243713441
 31
0.0
  0
SPLINE
  5
79
330
1F
100
AcDbEntity
  8
0
  6
Continuous
 62
     7
370
    15
100
AcDbSpline
210
0.0
220
0.0
230
1.0
 70
     8
 71
     3
 72
    23
 73
    19
 74
     0
 42
0.00000001
 43
0.00000001
 12
1.0
 22
0.0
 32
0.0
 13
1.0
 23
0.0
 33
0.0
 40
0.0
 40
0.0
 40
0.0
 40
0.0
 40
0.0685475367089032
 40
0.1356829456230481
 40
0.2012149895263284
 40
0.2656822347546962
 40
0.329266834817259
 40
0.3923954278443288
 40
0.4550697616521435
 40
0.5171268500645061
 40
0.5787900352866524
 40
0.6397398633435415
 40
0.7001915036663081
 40
0.7598062425966703
 40
0.819628319275008
 40
0.8793547910462766
 40
0.9395116077646615
 40
1.0
 40
1.0
 40
1.0
 40
1.0
 10
3.559971874671022
 20
8.661470072164258
 30
0.0
 10
3.561555121598046
 20
8.661451090345722
 30
0.0
 10
3.564688999444298
 20
8.661413517747548
 30
0.0
 10
3.569324930641636
 20
8.661047134199727
 30
0.0
 10
3.573838408080345
 20
8.660436362301022
 30
0.0
 10
3.578232541231304
 20
8.659605020969797
 30
0.0
 10
3.582528707223544
 20
8.65857323665997
 30
0.0
 10
3.586694071037661
 20
8.657229130427034
 30
0.0
 10
3.590753074457528
 20
8.655692259115398
 30
0.0
 10
3.59468011808652
 20
8.653922240771385
 30
0.0
 10
3.59845636021803
 20
8.651935361188439
 30
0.0
 10
3.602080624726347
 20
8.649753643725985
 30
0.0
 10
3.605524123100664
 20
8.647379793115574
 30
0.0
 10
3.608811085637536
 20
8.644833998808108
 30
0.0
 10
3.611886527018484
 20
8.642062401985454
 30
0.0
 10
3.614837766330893
 20
8.63914123678964
 30
0.0
 10
3.617564580431744
 20
8.635986361822816
 30
0.0
 10
3.619247777085055
 20
8.633765695133489
 30
0.0
 10
3.620091688420265
 20
8.632652310201813
 30
0.0
  0
CIRCLE
  5
7A
330
1F
100
AcDbEntity
  8
0
  6
Continuous
 62
     7
370
    15
100
AcDbCircle
 10
5.475
 20
8.55
 30
0.0
 40
0.1284999999999989
  0
CIRCLE
  5
7B
330
1F
100
AcDbEntity
  8
0
  6
Continuous
 62
     7
370
    15
100
AcDbCircle
 10
5.075
 20
8.05
 30
0.0
 40
0.1875000000000009
  0
CIRCLE
  5
7C
330
1F
100
AcDbEntity
  8
0
  6
Continuous
 62
     7
370
    15
100
AcDbCircle
 10
2.575
 20
8.05
 30
0.0
 40
0.1875000000000004
  0
LINE
  5
7D
330
1F
100
AcDbEntity
  8
0
  6
Continuous
 62
     7
370
    15
100
AcDbLine
 10
5.65
 20
9.49
 30
0.0
 11
2.0
 21
9.49
 31
0.0
  0
LINE
  5
7E
330
1F
100
AcDbEntity
  8
0
  6
Continuous
 62
     7
370
    15
100
AcDbLine
 10
5.65
 20
9.36875
 30
0.0
 11
5.65
 21
9.49
 31
0.0
  0
ARC
  5
7F
330
1F
100
AcDbEntity
  8
0
  6
Continuous
 62
     7
370
    15
100
AcDbCircle
 10
5.475
 20
9.2375
 30
0.0
 40
0.2187500000000011
100
AcDbArc
 50
36.8698976458
 51
323.1301023542
  0
LINE
  5
80
330
1F
100
AcDbEntity
  8
0
  6
Continuous
 62
     7
370
    15
100
AcDbLine
 10
5.65
 20
7.99375
 30
0.0
 11
5.65
 21
9.10625
 31
0.0
  0
ARC
  5
81
330
1F
100
AcDbEntity
  8
0
  6
Continuous
 62
     7
370
    15
100
AcDbCircle
 10
5.475
 20
7.8625
 30
0.0
 40
0.2187500000000005
100
AcDbArc
 50
36.8698976458
 51
323.1301023542
  0
LINE
  5
82
330
1F
100
AcDbEntity
  8
0
  6
Continuous
 62
     7
370
    15
100
AcDbLine
 10
5.65
 20
7.61
 30
0.0
 11
5.65
 21
7.73125
 31
0.0
  0
LINE
  5
83
330
1F
100
AcDbEntity
  8
0
  6
Continuous
 62
     7
370
    15
100
AcDbLine
 10
2.0
 20
7.61
 30
0.0
 11
5.65
 21
7.61
 31
0.0
  0
LINE
  5
84
330
1F
100
AcDbEntity
  8
0
  6
Continuous
 62
     7
370
    15
100
AcDbLine
 10
2.0
 20
9.49
 30
0.0
 11
2.0
 21
7.61
 31
0.0
  0
CIRCLE
  5
85
330
1F
100
AcDbEntity
  8
0
  6
Continuous
 62
     7
370
    15
100
AcDbCircle
 10
2.575
 20
9.05
 30
0.0
 40
0.1875000000000004
  0
CIRCLE
  5
86
330
1F
100
AcDbEntity
  8
0
  6
Continuous
 62
     7
370
    15
100
AcDbCircle
 10
5.075
 20
9.05
 30
0.0
 40
0.1875000000000009
  0
LINE
  5
87
330
1F
100
AcDbEntity
  8
0
  6
Continuous
 62
     7
370
    15
100
AcDbLine
 10
3.6607236287
 20
8.5201415844
 30
0.0
 11
3.648357386
 21
8.5201415844
 31
0.0
  0
LINE
  5
88
330
1F
100
AcDbEntity
  8
0
  6
Continuous
 62
     7
370
    15
100
AcDbLine
 10
3.6607236287
 20
8.5837394039
 30
0.0
 11
3.6607236287
 21
8.5201415844
 31
0.0
  0
LINE
  5
89
330
1F
100
AcDbEntity
  8
0
  6
Continuous
 62
     7
370
    15
100
AcDbLine
 10
3.6707712008
 20
8.5837394039
 30
0.0
 11
3.6607236287
 21
8.5837394039
 31
0.0
  0
LINE
  5
8A
330
1F
100
AcDbEntity
  8
0
  6
Continuous
 62
     7
370
    15
100
AcDbLine
 10
3.7213955068
 20
8.5201415844
 30
0.0
 11
3.6707712008
 21
8.5837394039
 31
0.0
  0
LINE
  5
8B
330
1F
100
AcDbEntity
  8
0
  6
Continuous
 62
     7
370
    15
100
AcDbLine
 10
3.7366876908
 20
8.5201415844
 30
0.0
 11
3.7213955068
 21
8.5201415844
 31
0.0
  0
LINE
  5
8C
330
1F
100
AcDbEntity
  8
0
  6
Continuous
 62
     7
370
    15
100
AcDbLine
 10
3.6860633849
 20
8.5837394039
 30
0.0
 11
3.7366876908
 21
8.5201415844
 31
0.0
  0
SPLINE
  5
8D
330
1F
100
AcDbEntity
  8
0
  6
Continuous
 62
     7
370
    15
100
AcDbSpline
210
0.0
220
0.0
230
1.0
 70
     8
 71
     3
 72
    23
 73
    19
 74
     0
 42
0.00000001
 43
0.00000001
 12
1.0
 22
0.0
 32
0.0
 13
1.0
 23
0.0
 33
0.0
 40
0.0
 40
0.0
 40
0.0
 40
0.0
 40
0.0787802355821394
 40
0.1537206442085843
 40
0.226713530308781
 40
0.2991911660659364
 40
0.3711899968376686
 40
0.4430064143534095
 40
0.5166891732948801
 40
0.593217216623412
 40
0.6338729178078458
 40
0.6769891422899791
 40
0.7228995063258269
 40
0.7719586105061443
 40
0.8242113233348358
 40
0.879378650627202
 40
0.9379481193304179
 40
1.0
 40
1.0
 40
1.0
 40
1.0
 10
3.734921084745724
 20
8.621086560908454
 30
0.0
 10
3.734863250174523
 20
8.619250533167866
 30
0.0
 10
3.734750399946584
 20
8.615667967502981
 30
0.0
 10
3.733698230510363
 20
8.610468720203423
 30
0.0
 10
3.731974745481672
 20
8.605618747186083
 30
0.0
 10
3.72959981284351
 20
8.601124155142166
 30
0.0
 10
3.726575424035892
 20
8.597072554931138
 30
0.0
 10
3.722940589740485
 20
8.593513875588465
 30
0.0
 10
3.718693282201521
 20
8.590535926273867
 30
0.0
 10
3.714739372125176
 20
8.588470855222628
 30
0.0
 10
3.711246687097749
 20
8.587148299764959
 30
0.0
 10
3.70837135982263
 20
8.586217734455548
 30
0.0
 10
3.705234864645629
 20
8.58549875944464
 30
0.0
 10
3.701867253046973
 20
8.584854659768633
 30
0.0
 10
3.698254510704763
 20
8.584368372587077
 30
0.0
 10
3.694405296555582
 20
8.584012207450488
 30
0.0
 10
3.690316865389044
 20
8.583789607108036
 30
0.0
 10
3.68750824061136
 20
8.583756457309258
 30
0.0
 10
3.686063384866863
 20
8.58373940388241
 30
0.0
  0
SPLINE
  5
8E
330
1F
100
AcDbEntity
  8
0
  6
Continuous
 62
     7
370
    15
100
AcDbSpline
210
0.0
220
0.0
230
1.0
 70
     8
 71
     3
 72
    23
 73
    19
 74
     0
 42
0.00000001
 43
0.00000001
 12
1.0
 22
0.0
 32
0.0
 13
1.0
 23
0.0
 33
0.0
 40
0.0
 40
0.0
 40
0.0
 40
0.0
 40
0.0642168426314302
 40
0.1270637656931292
 40
0.1887445383478299
 40
0.2491321028350409
 40
0.3094525327106279
 40
0.3698266762476818
 40
0.4306501418384683
 40
0.4923519318794691
 40
0.5540721062625169
 40
0.6156897837449749
 40
0.6767977025065386
 40
0.7384390482469418
 40
0.8013169100648931
 40
0.8651845117115416
 40
0.9316413244190757
 40
1.0
 40
1.0
 40
1.0
 40
1.0
 10
3.707152245153558
 20
8.656059840991233
 30
0.0
 10
3.708160379962095
 20
8.65581075574062
 30
0.0
 10
3.710155143327123
 20
8.655317898903931
 30
0.0
 10
3.713027193171214
 20
8.654276182336071
 30
0.0
 10
3.715763977578762
 20
8.653070685303602
 30
0.0
 10
3.71835412814261
 20
8.65165479080289
 30
0.0
 10
3.720784671102862
 20
8.650017988453577
 30
0.0
 10
3.723080667590841
 20
8.648188534814398
 30
0.0
 10
3.725252536227848
 20
8.646176440099026
 30
0.0
 10
3.727212442927862
 20
8.643930973898133
 30
0.0
 10
3.729060437089065
 20
8.641575205800496
 30
0.0
 10
3.730619044431607
 20
8.639027813798874
 30
0.0
 10
3.731962606625406
 20
8.636363974132575
 30
0.0
 10
3.733032312019113
 20
8.633556595480783
 30
0.0
 10
3.733893649557426
 20
8.630632903675169
 30
0.0
 10
3.734500981816125
 20
8.627566415615044
 30
0.0
 10
3.734865201801589
 20
8.624371101635361
 30
0.0
 10
3.734902282728894
 20
8.622191656407345
 30
0.0
 10
3.734921084745724
 20
8.621086560908454
 30
0.0
  0
SPLINE
  5
8F
330
1F
100
AcDbEntity
  8
0
  6
Continuous
 62
     7
370
    15
100
AcDbSpline
210
0.0
220
0.0
230
1.0
 70
     8
 71
     3
 72
    15
 73
    11
 74
     0
 42
0.00000001
 43
0.00000001
 12
1.0
 22
0.0
 32
0.0
 13
1.0
 23
0.0
 33
0.0
 40
0.0
 40
0.0
 40
0.0
 40
0.0
 40
0.1762577548178006
 40
0.3384344138804758
 40
0.4848220507878367
 40
0.6171575782663319
 40
0.734698360612477
 40
0.8373851838323607
 40
0.926372420929584
 40
1.0
 40
1.0
 40
1.0
 40
1.0
 10
3.675933003027573
 20
8.65793685996963
 30
0.0
 10
3.677773204937557
 20
8.65793073453703
 30
0.0
 10
3.681306596449724
 20
8.657918973027904
 30
0.0
 10
3.686368536227663
 20
8.657853391811049
 30
0.0
 10
3.690968028235544
 20
8.657665425050881
 30
0.0
 10
3.695102667578739
 20
8.657503669795878
 30
0.0
 10
3.698772378404578
 20
8.657208711476068
 30
0.0
 10
3.701988413473395
 20
8.65692679623513
 30
0.0
 10
3.704735960619112
 20
8.65655775447218
 30
0.0
 10
3.706399183111339
 20
8.656215021284556
 30
0.0
 10
3.707152245153558
 20
8.656059840991233
 30
0.0
  0
LINE
  5
90
330
1F
100
AcDbEntity
  8
0
  6
Continuous
 62
     7
370
    15
100
AcDbLine
 10
3.648357386
 20
8.65793686
 30
0.0
 11
3.675933003
 21
8.65793686
 31
0.0
  0
LINE
  5
91
330
1F
100
AcDbEntity
  8
0
  6
Continuous
 62
     7
370
    15
100
AcDbLine
 10
3.648357386
 20
8.5201415844
 30
0.0
 11
3.648357386
 21
8.65793686
 31
0.0
  0
LINE
  5
92
330
1F
100
AcDbEntity
  8
0
  6
Continuous
 62
     7
370
    15
100
AcDbLine
 10
3.9080484823
 20
8.6438040112
 30
0.0
 11
3.8868492091
 21
8.6438040112
 31
0.0
  0
LINE
  5
93
330
1F
100
AcDbEntity
  8
0
  6
Continuous
 62
     7
370
    15
100
AcDbLine
 10
3.9080484823
 20
8.5201415844
 30
0.0
 11
3.9080484823
 21
8.6438040112
 31
0.0
  0
LINE
  5
94
330
1F
100
AcDbEntity
  8
0
  6
Continuous
 62
     7
370
    15
100
AcDbLine
 10
3.920414725
 20
8.5201415844
 30
0.0
 11
3.9080484823
 21
8.5201415844
 31
0.0
  0
LINE
  5
95
330
1F
100
AcDbEntity
  8
0
  6
Continuous
 62
     7
370
    15
100
AcDbLine
 10
3.920414725
 20
8.65793686
 30
0.0
 11
3.920414725
 21
8.5201415844
 31
0.0
  0
LINE
  5
96
330
1F
100
AcDbEntity
  8
0
  6
Continuous
 62
     7
370
    15
100
AcDbLine
 10
3.8949369527
 20
8.65793686
 30
0.0
 11
3.920414725
 21
8.65793686
 31
0.0
  0
LINE
  5
97
330
1F
100
AcDbEntity
  8
0
  6
Continuous
 62
     7
370
    15
100
AcDbLine
 10
3.8868492091
 20
8.6438040112
 30
0.0
 11
3.8949369527
 21
8.65793686
 31
0.0
  0
SPLINE
  5
98
330
1F
100
AcDbEntity
  8
0
  6
Continuous
 62
     7
370
    15
100
AcDbSpline
210
0.0
220
0.0
230
1.0
 70
     8
 71
     3
 72
    23
 73
    19
 74
     0
 42
0.00000001
 43
0.00000001
 12
1.0
 22
0.0
 32
0.0
 13
1.0
 23
0.0
 33
0.0
 40
0.0
 40
0.0
 40
0.0
 40
0.0
 40
0.0619654006870625
 40
0.1221219056382957
 40
0.1809884968498415
 40
0.2399332164519025
 40
0.2999058311065245
 40
0.3599888474769871
 40
0.4217757417416465
 40
0.4865758264211278
 40
0.551534804619743
 40
0.6150175427599812
 40
0.6772586166616574
 40
0.7397299623627148
 40
0.8030501026629525
 40
0.8664951320156992
 40
0.9319734741771512
 40
1.0
 40
1.0
 40
1.0
 40
1.0
 10
4.157139942003951
 20
8.619402764471952
 30
0.0
 10
4.157114912779565
 20
8.62034297700781
 30
0.0
 10
4.15706558498462
 20
8.622195955368491
 30
0.0
 10
4.156630242563605
 20
8.624912717534578
 30
0.0
 10
4.155972348622876
 20
8.62753337949583
 30
0.0
 10
4.155029621928075
 20
8.630066002295745
 30
0.0
 10
4.153785262082195
 20
8.632485122455831
 30
0.0
 10
4.15227056208544
 20
8.634793684668571
 30
0.0
 10
4.150522921793398
 20
8.637025533692196
 30
0.0
 10
4.148501218276434
 20
8.639118183222042
 30
0.0
 10
4.146280292299798
 20
8.641034766115052
 30
0.0
 10
4.143934062001167
 20
8.642732564753413
 30
0.0
 10
4.141451774431879
 20
8.644151427383287
 30
0.0
 10
4.138843895606058
 20
8.64531455719354
 30
0.0
 10
4.136117696023053
 20
8.646226973776074
 30
0.0
 10
4.133267902907998
 20
8.646859201312417
 30
0.0
 10
4.130302390455931
 20
8.647256149499292
 30
0.0
 10
4.128277449680709
 20
8.64730985705474
 30
0.0
 10
4.127245654450953
 20
8.64733722338574
 30
0.0
  0
SPLINE
  5
99
330
1F
100
AcDbEntity
  8
0
  6
Continuous
 62
     7
370
    15
100
AcDbSpline
210
0.0
220
0.0
230
1.0
 70
     8
 71
     3
 72
    19
 73
    15
 74
     0
 42
0.00000001
 43
0.00000001
 12
1.0
 22
0.0
 32
0.0
 13
1.0
 23
0.0
 33
0.0
 40
0.0
 40
0.0
 40
0.0
 40
0.0
 40
0.1108026438013196
 40
0.2128292023477697
 40
0.3061013098231107
 40
0.3906473211160095
 40
0.4669244693608519
 40
0.5344810392840312
 40
0.593586940965672
 40
0.6445570045087168
 40
0.7362004526293726
 40
0.8250240256188645
 40
0.9119855848297583
 40
1.0
 40
1.0
 40
1.0
 40
1.0
 10
4.131082502068558
 20
8.577169837458019
 30
0.0
 10
4.132383599974379
 20
8.57852803850324
 30
0.0
 10
4.134882742774336
 20
8.581136864747501
 30
0.0
 10
4.138417489892809
 20
8.584945642705533
 30
0.0
 10
4.141592253212194
 20
8.588479089191837
 30
0.0
 10
4.144427583636283
 20
8.591730528106973
 30
0.0
 10
4.146861973611315
 20
8.594747518965065
 30
0.0
 10
4.149022297703747
 20
8.597432349814977
 30
0.0
 10
4.150753226482569
 20
8.599902997464895
 30
0.0
 10
4.15263178536791
 20
8.602766801162238
 30
0.0
 10
4.154451233454454
 20
8.606263349082477
 30
0.0
 10
4.156014712038722
 20
8.610536328974645
 30
0.0
 10
4.156968052528825
 20
8.614935039709918
 30
0.0
 10
4.157082416131416
 20
8.617907560853512
 30
0.0
 10
4.157139942003951
 20
8.619402764471952
 30
0.0
  0
LINE
  5
9A
330
1F
100
AcDbEntity
  8
0
  6
Continuous
 62
     7
370
    15
100
AcDbLine
 10
4.0776426676
 20
8.5201415844
 30
0.0
 11
4.1310825021
 21
8.5771698375
 31
0.0
  0
LINE
  5
9B
330
1F
100
AcDbEntity
  8
0
  6
Continuous
 62
     7
370
    15
100
AcDbLine
 10
4.1712727908
 20
8.5201415844
 30
0.0
 11
4.0776426676
 21
8.5201415844
 31
0.0
  0
LINE
  5
9C
330
1F
100
AcDbEntity
  8
0
  6
Continuous
 62
     7
370
    15
100
AcDbLine
 10
4.1712727908
 20
8.5342744332
 30
0.0
 11
4.1712727908
 21
8.5201415844
 31
0.0
  0
LINE
  5
9D
330
1F
100
AcDbEntity
  8
0
  6
Continuous
 62
     7
370
    15
100
AcDbLine
 10
4.1071505101
 20
8.5342744332
 30
0.0
 11
4.1712727908
 21
8.5342744332
 31
0.0
  0
LINE
  5
9E
330
1F
100
AcDbEntity
  8
0
  6
Continuous
 62
     7
370
    15
100
AcDbLine
 10
4.1416269322
 20
8.5710695258
 30
0.0
 11
4.1071505101
 21
8.5342744332
 31
0.0
  0
SPLINE
  5
9F
330
1F
100
AcDbEntity
  8
0
  6
Continuous
 62
     7
370
    15
100
AcDbSpline
210
0.0
220
0.0
230
1.0
 70
     8
 71
     3
 72
    19
 73
    15
 74
     0
 42
0.00000001
 43
0.00000001
 12
1.0
 22
0.0
 32
0.0
 13
1.0
 23
0.0
 33
0.0
 40
0.0
 40
0.0
 40
0.0
 40
0.0
 40
0.0987021963061526
 40
0.1956723088106643
 40
0.2924224265079544
 40
0.3913425437998246
 40
0.4444624406718922
 40
0.504228775449316
 40
0.5703523379946782
 40
0.6425457530977483
 40
0.7222875053440181
 40
0.8079211226827113
 40
0.9004695379850145
 40
1.0
 40
1.0
 40
1.0
 40
1.0
 10
4.169506184685154
 20
8.620506893282773
 30
0.0
 10
4.169439520793167
 20
8.61858768719715
 30
0.0
 10
4.169307362866113
 20
8.614782954375475
 30
0.0
 10
4.168176875599679
 20
8.609191818046767
 30
0.0
 10
4.16641126492663
 20
8.603774754303197
 30
0.0
 10
4.164285384735711
 20
8.59941501800066
 30
0.0
 10
4.162140800323834
 20
8.595901888325185
 30
0.0
 10
4.160208221284714
 20
8.59300941962756
 30
0.0
 10
4.157945827149997
 20
8.589895031108291
 30
0.0
 10
4.15532068943493
 20
8.58656915168412
 30
0.0
 10
4.1523871117912
 20
8.583005730223547
 30
0.0
 10
4.149118522682672
 20
8.57920691938109
 30
0.0
 10
4.145491613941672
 20
8.57521196781337
 30
0.0
 10
4.142946003675753
 20
8.572483400829599
 30
0.0
 10
4.141626932211906
 20
8.571069525778231
 30
0.0
  0
SPLINE
  5
A0
330
1F
100
AcDbEntity
  8
0
  6
Continuous
 62
     7
370
    15
100
AcDbSpline
210
0.0
220
0.0
230
1.0
 70
     8
 71
     3
 72
    23
 73
    19
 74
     0
 42
0.00000001
 43
0.00000001
 12
1.0
 22
0.0
 32
0.0
 13
1.0
 23
0.0
 33
0.0
 40
0.0
 40
0.0
 40
0.0
 40
0.0
 40
0.0694754602496705
 40
0.1365167976177981
 40
0.20078882360926
 40
0.263829672855826
 40
0.32573502296542
 40
0.3872906922152901
 40
0.4495092187626032
 40
0.512967819545441
 40
0.5762752154930608
 40
0.637580100263924
 40
0.6979026059171024
 40
0.7571720884269852
 40
0.8165985284886557
 40
0.8766531708928198
 40
0.9372896424102403
 40
0.9999999999999999
 40
0.9999999999999999
 40
0.9999999999999999
 40
0.9999999999999999
 10
4.127880528517175
 20
8.661470072164258
 30
0.0
 10
4.12939147631589
 20
8.661434699863259
 30
0.0
 10
4.132360434766929
 20
8.661365194555344
 30
0.0
 10
4.13669358494224
 20
8.660768303639312
 30
0.0
 10
4.140818675275444
 20
8.659833437826899
 30
0.0
 10
4.144727642461346
 20
8.658521807263384
 30
0.0
 10
4.148389298546828
 20
8.656758640830608
 30
0.0
 10
4.151831150694715
 20
8.654640627497608
 30
0.0
 10
4.155094174741605
 20
8.652191027837286
 30
0.0
 10
4.158031449686966
 20
8.649307019433808
 30
0.0
 10
4.160728618160834
 20
8.646228185399542
 30
0.0
 10
4.163055478599586
 20
8.64294126006048
 30
0.0
 10
4.165048122830819
 20
8.639546406292173
 30
0.0
 10
4.166709055109605
 20
8.63601773693857
 30
0.0
 10
4.167931737745004
 20
8.632322027158542
 30
0.0
 10
4.168860013651672
 20
8.628513082166746
 30
0.0
 10
4.169384714977975
 20
8.624551475434204
 30
0.0
 10
4.169465243462143
 20
8.62187011497563
 30
0.0
 10
4.169506184685154
 20
8.620506893282773
 30
0.0
  0
SPLINE
  5
A1
330
1F
100
AcDbEntity
  8
0
  6
Continuous
 62
     7
370
    15
100
AcDbSpline
210
0.0
220
0.0
230
1.0
 70
     8
 71
     3
 72
    23
 73
    19
 74
     0
 42
0.00000001
 43
0.00000001
 12
1.0
 22
0.0
 32
0.0
 13
1.0
 23
0.0
 33
0.0
 40
0.0
 40
0.0
 40
0.0
 40
0.0
 40
0.0687907943906181
 40
0.1351032894311276
 40
0.1989786743106511
 40
0.2619042997808561
 40
0.3234949693679692
 40
0.3851953779660511
 40
0.4469692387407744
 40
0.5097647767031315
 40
0.5722505688473688
 40
0.6334051756611522
 40
0.6932511629217518
 40
0.7525831627856703
 40
0.8125792661534214
 40
0.8732750849201915
 40
0.9355499428950295
 40
1.0
 40
1.0
 40
1.0
 40
1.0
 10
4.082942485916731
 20
8.615538313634076
 30
0.0
 10
4.083023082491846
 20
8.617178899766666
 30
0.0
 10
4.08318137202043
 20
8.620400967269616
 30
0.0
 10
4.083922643251207
 20
8.62509875886013
 30
0.0
 10
4.084983307708092
 20
8.62958910526662
 30
0.0
 10
4.086482971251982
 20
8.6338359522733
 30
0.0
 10
4.088345423132681
 20
8.637876850195754
 30
0.0
 10
4.090578888777598
 20
8.641695748451317
 30
0.0
 10
4.093224315963166
 20
8.64527807871567
 30
0.0
 10
4.096224581083065
 20
8.64859063160132
 30
0.0
 10
4.099483188919876
 20
8.651629512341449
 30
0.0
 10
4.102999170788814
 20
8.654253734499173
 30
0.0
 10
4.106693856902448
 20
8.656470965655156
 30
0.0
 10
4.110556037964078
 20
8.658324557852946
 30
0.0
 10
4.114629288497915
 20
8.659715890369581
 30
0.0
 10
4.118876645105767
 20
8.660748238385509
 30
0.0
 10
4.123316768586453
 20
8.6613693543588
 30
0.0
 10
4.126341966304836
 20
8.661436117571567
 30
0.0
 10
4.127880528517175
 20
8.661470072164258
 30
0.0
  0
LINE
  5
A2
330
1F
100
AcDbEntity
  8
0
  6
Continuous
 62
     7
370
    15
100
AcDbLine
 10
4.0953087286
 20
8.6155383136
 30
0.0
 11
4.0829424859
 21
8.6155383136
 31
0.0
  0
SPLINE
  5
A3
330
1F
100
AcDbEntity
  8
0
  6
Continuous
 62
     7
370
    15
100
AcDbSpline
210
0.0
220
0.0
230
1.0
 70
     8
 71
     3
 72
    23
 73
    19
 74
     0
 42
0.00000001
 43
0.00000001
 12
1.0
 22
0.0
 32
0.0
 13
1.0
 23
0.0
 33
0.0
 40
0.0
 40
0.0
 40
0.0
 40
0.0
 40
0.0644386715952452
 40
0.1265469112716777
 40
0.1868871534365718
 40
0.245877535589456
 40
0.3040408846912677
 40
0.3621912180726624
 40
0.4209759327916456
 40
0.480660283279667
 40
0.5406002749537578
 40
0.6006890983494533
 40
0.6619357897571961
 40
0.7244425059139831
 40
0.7890383938817436
 40
0.8563137570509944
 40
0.9263520282058634
 40
1.0
 40
1.0
 40
1.0
 40
1.0
 10
4.127245654450953
 20
8.64733722338574
 30
0.0
 10
4.126168062610152
 20
8.647309072509207
 30
0.0
 10
4.124051850160564
 20
8.647253788835808
 30
0.0
 10
4.120944801619755
 20
8.646867069781003
 30
0.0
 10
4.117980794630627
 20
8.646199910710259
 30
0.0
 10
4.115152373254528
 20
8.645287443214706
 30
0.0
 10
4.112454751765838
 20
8.644127657828001
 30
0.0
 10
4.109901049244683
 20
8.642683100950883
 30
0.0
 10
4.107496998486419
 20
8.640959341377949
 30
0.0
 10
4.105238080244471
 20
8.639004988766766
 30
0.0
 10
4.103156821226221
 20
8.636829098955115
 30
0.0
 10
4.101328204066184
 20
8.634403509857991
 30
0.0
 10
4.099730408233757
 20
8.63177250925283
 30
0.0
 10
4.098336343923529
 20
8.62894319623829
 30
0.0
 10
4.097204230140743
 20
8.625889897813702
 30
0.0
 10
4.096339145478102
 20
8.622623452740928
 30
0.0
 10
4.095654623953629
 20
8.619158044022875
 30
0.0
 10
4.095425942040052
 20
8.616764930445845
 30
0.0
 10
4.095308728597934
 20
8.615538313634076
 30
0.0
  0
SPLINE
  5
A4
330
1F
100
AcDbEntity
  8
0
  6
Continuous
 62
     7
370
    15
100
AcDbSpline
210
0.0
220
0.0
230
1.0
 70
     8
 71
     3
 72
    31
 73
    27
 74
     0
 42
0.00000001
 43
0.00000001
 12
1.0
 22
0.0
 32
0.0
 13
1.0
 23
0.0
 33
0.0
 40
0.0
 40
0.0
 40
0.0
 40
0.0
 40
0.0650632896172791
 40
0.126773166466523
 40
0.1855157632260792
 40
0.2407646791677152
 40
0.2929797960235983
 40
0.3422503727797676
 40
0.3889192861856606
 40
0.4327756640583105
 40
0.4746284326311181
 40
0.514774690637954
 40
0.5536058934984428
 40
0.591426406431173
 40
0.6280281199460673
 40
0.6638036341103204
 40
0.6989843361316642
 40
0.733591489306706
 40
0.7676284691511404
 40
0.8012083477865922
 40
0.8342638397266241
 40
0.8669806947287765
 40
0.8997197415181609
 40
0.9327019124985387
 40
0.9661758834327498
 40
1.0
 40
1.0
 40
1.0
 40
1.0
 10
4.340866976124686
 20
8.588984015733812
 30
0.0
 10
4.340841323189886
 20
8.586876775263699
 30
0.0
 10
4.340791339492583
 20
8.582770903143272
 30
0.0
 10
4.340532335289129
 20
8.576765746634619
 30
0.0
 10
4.340022152959258
 20
8.571096532331525
 30
0.0
 10
4.339383964443165
 20
8.56574966373079
 30
0.0
 10
4.338500068263109
 20
8.560747395272799
 30
0.0
 10
4.33741325069416
 20
8.55607241698666
 30
0.0
 10
4.336206545071256
 20
8.551704540149439
 30
0.0
 10
4.334716986248036
 20
8.54767954756637
 30
0.0
 10
4.333086643320979
 20
8.543941290760669
 30
0.0
 10
4.331312816699901
 20
8.540450458149264
 30
0.0
 10
4.329412429846135
 20
8.53717619465794
 30
0.0
 10
4.327342006814519
 20
8.534144708558287
 30
0.0
 10
4.325135179523321
 20
8.531334525208962
 30
0.0
 10
4.322744715397613
 20
8.528795248726619
 30
0.0
 10
4.320237999448716
 20
8.526465694712321
 30
0.0
 10
4.317583967329269
 20
8.52439279599334
 30
0.0
 10
4.314811859013043
 20
8.52257843360608
 30
0.0
 10
4.311978824488441
 20
8.520955841071126
 30
0.0
 10
4.309034596797603
 20
8.519647467250266
 30
0.0
 10
4.306045897871244
 20
8.51852404044012
 30
0.0
 10
4.302969977945459
 20
8.517665754932791
 30
0.0
 10
4.299810671225402
 20
8.517072296054026
 30
0.0
 10
4.296584047763643
 20
8.516656081547934
 30
0.0
 10
4.294402883784065
 20
8.51662433037174
 30
0.0
 10
4.293306627598541
 20
8.516608372184448
 30
0.0
  0
SPLINE
  5
A5
330
1F
100
AcDbEntity
  8
0
  6
Continuous
 62
     7
370
    15
100
AcDbSpline
210
0.0
220
0.0
230
1.0
 70
     8
 71
     3
 72
    31
 73
    27
 74
     0
 42
0.00000001
 43
0.00000001
 12
1.0
 22
0.0
 32
0.0
 13
1.0
 23
0.0
 33
0.0
 40
0.0
 40
0.0
 40
0.0
 40
0.0
 40
0.0337881161627101
 40
0.0671939323738796
 40
0.0998624108568249
 40
0.1325666121262584
 40
0.1651511732547857
 40
0.1979131873557923
 40
0.2313190035669616
 40
0.2650832782673733
 40
0.2992553087581149
 40
0.3343985665049782
 40
0.3699428235093074
 40
0.4062835607000607
 40
0.4440638196985083
 40
0.4829977068727753
 40
0.5233544466133044
 40
0.5655365896041492
 40
0.6096129240658196
 40
0.6563908113764173
 40
0.7058854949364572
 40
0.7583245002617313
 40
0.8138317829411502
 40
0.8727945590393901
 40
0.934722229540074
 40
1.0
 40
1.0
 40
1.0
 40
1.0
 10
4.293306627598541
 20
8.661470072164258
 30
0.0
 10
4.294402512578238
 20
8.661450866842383
 30
0.0
 10
4.296581883007202
 20
8.661412673499694
 30
0.0
 10
4.299803945024759
 20
8.661045589147939
 30
0.0
 10
4.302951570289113
 20
8.660436489813414
 30
0.0
 10
4.306011339529407
 20
8.659573459318032
 30
0.0
 10
4.309008386240738
 20
8.65850276338656
 30
0.0
 10
4.31191926843151
 20
8.657160750901946
 30
0.0
 10
4.314762066921355
 20
8.655598590770273
 30
0.0
 10
4.317491605800091
 20
8.65376300504954
 30
0.0
 10
4.320137850498756
 20
8.651716458742582
 30
0.0
 10
4.32263580179687
 20
8.649402967844813
 30
0.0
 10
4.324985687068423
 20
8.646845892283055
 30
0.0
 10
4.327216998304102
 20
8.644072590555236
 30
0.0
 10
4.329266431264702
 20
8.641029870679898
 30
0.0
 10
4.33121814119523
 20
8.63777065375808
 30
0.0
 10
4.332965071742541
 20
8.634237942545727
 30
0.0
 10
4.334647539269257
 20
8.630490680032299
 30
0.0
 10
4.336099782841668
 20
8.626425181654085
 30
0.0
 10
4.337409477537428
 20
8.622064364310852
 30
0.0
 10
4.338467704646678
 20
8.617356719159146
 30
0.0
 10
4.339349172061565
 20
8.61232694572233
 30
0.0
 10
4.340032041980684
 20
8.606956572366418
 30
0.0
 10
4.340529390094012
 20
8.601257111125799
 30
0.0
 10
4.34079210997753
 20
8.595224812281673
 30
0.0
 10
4.340841586402989
 20
8.591100487510918
 30
0.0
 10
4.340866976124686
 20
8.588984015733812
 30
0.0
  0
SPLINE
  5
A6
330
1F
100
AcDbEntity
  8
0
  6
Continuous
 62
     7
370
    15
100
AcDbSpline
210
0.0
220
0.0
230
1.0
 70
     8
 71
     3
 72
    31
 73
    27
 74
     0
 42
0.00000001
 43
0.00000001
 12
1.0
 22
0.0
 32
0.0
 13
1.0
 23
0.0
 33
0.0
 40
0.0
 40
0.0
 40
0.0
 40
0.0
 40
0.0685946222587425
 40
0.1332460424433008
 40
0.1943125864682561
 40
0.2512792231169662
 40
0.3045134392563464
 40
0.3542349066533248
 40
0.4004805887739886
 40
0.4434107549384915
 40
0.4840148686163449
 40
0.5232523007732025
 40
0.5610423727283594
 40
0.5979002393643996
 40
0.6335184888561948
 40
0.6683143511696507
 40
0.7024956712863816
 40
0.7366853535134585
 40
0.7702931693607881
 40
0.8034372550192493
 40
0.8359129516660287
 40
0.86846024578929
 40
0.9008465382431824
 40
0.9334665246307078
 40
0.9662575752981233
 40
1.0
 40
1.0
 40
1.0
 40
1.0
 10
4.247236852967004
 20
8.588984015733812
 30
0.0
 10
4.247249767067691
 20
8.591192574306028
 30
0.0
 10
4.247274852894417
 20
8.595482731166165
 30
0.0
 10
4.247553924585057
 20
8.60173409502706
 30
0.0
 10
4.248017520739119
 20
8.607598673333959
 30
0.0
 10
4.248652850378894
 20
8.613076746800038
 30
0.0
 10
4.249425999206594
 20
8.618169729655065
 30
0.0
 10
4.250458104978299
 20
8.622864011432085
 30
0.0
 10
4.251631837364715
 20
8.627181318779057
 30
0.0
 10
4.252992169876939
 20
8.63113573013638
 30
0.0
 10
4.254527122200496
 20
8.634780521593944
 30
0.0
 10
4.256197762386405
 20
8.638183088574015
 30
0.0
 10
4.25807039208812
 20
8.64133828276062
 30
0.0
 10
4.26003798708525
 20
8.644296463485816
 30
0.0
 10
4.262180194629653
 20
8.647009207375277
 30
0.0
 10
4.264436052522064
 20
8.649514824009865
 30
0.0
 10
4.266893606705809
 20
8.651755404736786
 30
0.0
 10
4.269469315692953
 20
8.653796597744073
 30
0.0
 10
4.272186499330422
 20
8.655585947022496
 30
0.0
 10
4.274967706658895
 20
8.657162039093983
 30
0.0
 10
4.277832080905191
 20
8.658508490560818
 30
0.0
 10
4.280787442436606
 20
8.659567169137965
 30
0.0
 10
4.283807228180295
 20
8.660441611924288
 30
0.0
 10
4.286901994585463
 20
8.661039601989113
 30
0.0
 10
4.29007685143335
 20
8.661415858228853
 30
0.0
 10
4.292219821307293
 20
8.661451829399727
 30
0.0
 10
4.293306627598541
 20
8.661470072164258
 30
0.0
  0
SPLINE
  5
A7
330
1F
100
AcDbEntity
  8
0
  6
Continuous
 62
     7
370
    15
100
AcDbSpline
210
0.0
220
0.0
230
1.0
 70
     8
 71
     3
 72
    31
 73
    27
 74
     0
 42
0.00000001
 43
0.00000001
 12
1.0
 22
0.0
 32
0.0
 13
1.0
 23
0.0
 33
0.0
 40
0.0
 40
0.0
 40
0.0
 40
0.0
 40
0.0337871463469909
 40
0.0666216577242938
 40
0.0992848780959724
 40
0.1313611650426513
 40
0.1635851875953433
 40
0.1961039269870678
 40
0.2289022543238166
 40
0.2621580559050073
 40
0.2959912222583165
 40
0.3302178457247997
 40
0.3650598258919537
 40
0.4009507373401077
 40
0.4376203820767374
 40
0.4757075294370917
 40
0.5153806916250482
 40
0.5564135414931645
 40
0.5997648298727313
 40
0.6464241555840872
 40
0.6964314445175666
 40
0.7497815178015574
 40
0.8065733069755323
 40
0.8674355315653994
 40
0.931886753250874
 40
1.0
 40
1.0
 40
1.0
 40
1.0
 10
4.293306627598541
 20
8.516608372184448
 30
0.0
 10
4.292219851457388
 20
8.516626732635583
 30
0.0
 10
4.29007694103355
 20
8.516662935861465
 30
0.0
 10
4.286901648693413
 20
8.517037492219268
 30
0.0
 10
4.283819662731212
 20
8.517639677385109
 30
0.0
 10
4.280815774776975
 20
8.518482850774522
 30
0.0
 10
4.277874573395727
 20
8.519514930944421
 30
0.0
 10
4.275036136913215
 20
8.520859564157137
 30
0.0
 10
4.272268905271851
 20
8.522408149549104
 30
0.0
 10
4.269580261334131
 20
8.524171748818327
 30
0.0
 10
4.267020727434924
 20
8.52619228752417
 30
0.0
 10
4.264575900454065
 20
8.528427102039386
 30
0.0
 10
4.262307198914814
 20
8.530931960751882
 30
0.0
 10
4.260195620347202
 20
8.533667312055336
 30
0.0
 10
4.258188766481228
 20
8.536607990887333
 30
0.0
 10
4.256342728161574
 20
8.539794147306445
 30
0.0
 10
4.254635214221886
 20
8.543213147719422
 30
0.0
 10
4.253074446872732
 20
8.546887081210567
 30
0.0
 10
4.251690641222538
 20
8.550869558685362
 30
0.0
 10
4.250468290509411
 20
8.55520614051617
 30
0.0
 10
4.249503166199566
 20
8.559935102567902
 30
0.0
 10
4.24867706559591
 20
8.565018463477564
 30
0.0
 10
4.248010751302858
 20
8.570478067036062
 30
0.0
 10
4.247555856605285
 20
8.5763168772009
 30
0.0
 10
4.247274702470018
 20
8.58253125550508
 30
0.0
 10
4.247249699697573
 20
8.586793845045102
 30
0.0
 10
4.247236852967004
 20
8.588984015733812
 30
0.0
  0
SPLINE
  5
A8
330
1F
100
AcDbEntity
  8
0
  6
Continuous
 62
     7
370
    15
100
AcDbSpline
210
0.0
220
0.0
230
1.0
 70
     8
 71
     3
 72
    15
 73
    11
 74
     0
 42
0.00000001
 43
0.00000001
 12
1.0
 22
0.0
 32
0.0
 13
1.0
 23
0.0
 33
0.0
 40
0.0
 40
0.0
 40
0.0
 40
0.0
 40
0.1105883385953353
 40
0.2245417540535956
 40
0.3425034940501039
 40
0.4643240984173577
 40
0.5907560327017664
 40
0.7222274753555143
 40
0.8588428362087241
 40
1.0
 40
1.0
 40
1.0
 40
1.0
 10
4.323283724812351
 20
8.554397180734822
 30
0.0
 10
4.323699148741238
 20
8.555626698036647
 30
0.0
 10
4.3245426374748
 20
8.558123145447807
 30
0.0
 10
4.325629715201995
 20
8.561995730175385
 30
0.0
 10
4.32648583328088
 20
8.566058831117823
 30
0.0
 10
4.327256044530857
 20
8.5702881664217
 30
0.0
 10
4.327781755392959
 20
8.57471492630402
 30
0.0
 10
4.328204897648204
 20
8.57932541385976
 30
0.0
 10
4.328454137291482
 20
8.58412310528635
 30
0.0
 10
4.328485033002951
 20
8.587382750608999
 30
0.0
 10
4.328500733443483
 20
8.589039222174355
 30
0.0
  0
SPLINE
  5
A9
330
1F
100
AcDbEntity
  8
0
  6
Continuous
 62
     7
370
    15
100
AcDbSpline
210
0.0
220
0.0
230
1.0
 70
     8
 71
     3
 72
    19
 73
    15
 74
     0
 42
0.00000001
 43
0.00000001
 12
1.0
 22
0.0
 32
0.0
 13
1.0
 23
0.0
 33
0.0
 40
0.0
 40
0.0
 40
0.0
 40
0.0
 40
0.1128134007444582
 40
0.2253938839207301
 40
0.3395948145627007
 40
0.4596754102248634
 40
0.5217351900879318
 40
0.5839258387389149
 40
0.6481741447653689
 40
0.7138810381130669
 40
0.7810044549073893
 40
0.8514509275565553
 40
0.9240506926641772
 40
1.0
 40
1.0
 40
1.0
 40
1.0
 10
4.293720675902598
 20
8.530741220962968
 30
0.0
 10
4.29524656848747
 20
8.530804125719328
 30
0.0
 10
4.298295203258522
 20
8.530929805357204
 30
0.0
 10
4.302749289681527
 20
8.532142354072723
 30
0.0
 10
4.307073316062719
 20
8.533971863500428
 30
0.0
 10
4.310461975128817
 20
8.536135151115358
 30
0.0
 10
4.313040028022574
 20
8.538195321566196
 30
0.0
 10
4.314887153617295
 20
8.539951803783241
 30
0.0
 10
4.316582509854825
 20
8.541918570212626
 30
0.0
 10
4.318190465557762
 20
8.544040589736836
 30
0.0
 10
4.319665232316616
 20
8.546358404074386
 30
0.0
 10
4.321006300729813
 20
8.548860867667536
 30
0.0
 10
4.322230054570174
 20
8.551554929790063
 30
0.0
 10
4.322927261103648
 20
8.55343562818045
 30
0.0
 10
4.323283724812351
 20
8.554397180734822
 30
0.0
  0
SPLINE
  5
AA
330
1F
100
AcDbEntity
  8
0
  6
Continuous
 62
     7
370
    15
100
AcDbSpline
210
0.0
220
0.0
230
1.0
 70
     8
 71
     3
 72
    27
 73
    23
 74
     0
 42
0.00000001
 43
0.00000001
 12
1.0
 22
0.0
 32
0.0
 13
1.0
 23
0.0
 33
0.0
 40
0.0
 40
0.0
 40
0.0
 40
0.0
 40
0.0729510658758666
 40
0.141583694186545
 40
0.205926460170867
 40
0.2653013571846053
 40
0.320597232713928
 40
0.3718165030988103
 40
0.418789769709452
 40
0.4616987286157644
 40
0.5021335821035651
 40
0.5408043152926477
 40
0.5781805253279659
 40
0.6142968652075139
 40
0.6496782432647873
 40
0.6842994600896377
 40
0.7183589527723607
 40
0.7520808646475959
 40
0.8176524386023859
 40
0.8797220764054368
 40
0.9399655597309875
 40
1.0
 40
1.0
 40
1.0
 40
1.0
 10
4.259603095648207
 20
8.589039222174355
 30
0.0
 10
4.259607798288661
 20
8.587198722221446
 30
0.0
 10
4.25961692519037
 20
8.583626673213605
 30
0.0
 10
4.259855358283961
 20
8.578435993647624
 30
0.0
 10
4.260180170567405
 20
8.573594642119389
 30
0.0
 10
4.260599119275482
 20
8.569096471392415
 30
0.0
 10
4.261221282603278
 20
8.564956707120375
 30
0.0
 10
4.261918400233895
 20
8.561146877078441
 30
0.0
 10
4.262766750218904
 20
8.557687143333803
 30
0.0
 10
4.263770491079809
 20
8.554553764959609
 30
0.0
 10
4.264913762611048
 20
8.551693565412547
 30
0.0
 10
4.266162024960263
 20
8.549032100250054
 30
0.0
 10
4.267502998302976
 20
8.546537929524236
 30
0.0
 10
4.269003752261755
 20
8.5442334567536
 30
0.0
 10
4.270638203569983
 20
8.542111166829473
 30
0.0
 10
4.272369434244688
 20
8.540133496265602
 30
0.0
 10
4.274262055671543
 20
8.538369835583099
 30
0.0
 10
4.276880313251984
 20
8.536254605070129
 30
0.0
 10
4.280336867363285
 20
8.534068812403609
 30
0.0
 10
4.284692003396006
 20
8.532165423040158
 30
0.0
 10
4.289167139261419
 20
8.530969263338099
 30
0.0
 10
4.292204590052243
 20
8.530817146961914
 30
0.0
 10
4.293720675902598
 20
8.530741220962968
 30
0.0
  0
SPLINE
  5
AB
330
1F
100
AcDbEntity
  8
0
  6
Continuous
 62
     7
370
    15
100
AcDbSpline
210
0.0
220
0.0
230
1.0
 70
     8
 71
     3
 72
    27
 73
    23
 74
     0
 42
0.00000001
 43
0.00000001
 12
1.0
 22
0.0
 32
0.0
 13
1.0
 23
0.0
 33
0.0
 40
0.0
 40
0.0
 40
0.0
 40
0.0
 40
0.0603866193110622
 40
0.1208832485859964
 40
0.1827546186251393
 40
0.247811029758352
 40
0.2812991000432493
 40
0.3150876241506572
 40
0.3497023955502756
 40
0.3848565811185555
 40
0.420966197226103
 40
0.4585111882611395
 40
0.4971747221273122
 40
0.5376020478662697
 40
0.5805030184200117
 40
0.6274675400267049
 40
0.6783882095592436
 40
0.7339832205925607
 40
0.7937467045508351
 40
0.8577136721607322
 40
0.926697864361386
 40
1.0
 40
1.0
 40
1.0
 40
1.0
 10
4.293720675902598
 20
8.64733722338574
 30
0.0
 10
4.292196636844062
 20
8.647257245171282
 30
0.0
 10
4.289145782292681
 20
8.647097143041204
 30
0.0
 10
4.284639957303439
 20
8.645967487387992
 30
0.0
 10
4.280320888341143
 20
8.643998472981
 30
0.0
 10
4.27688612555851
 20
8.641834993750098
 30
0.0
 10
4.274253693018842
 20
8.639774430307513
 30
0.0
 10
4.272400043673301
 20
8.637987562037495
 30
0.0
 10
4.270662005397012
 20
8.636032985093985
 30
0.0
 10
4.269060914840413
 20
8.633891177422711
 30
0.0
 10
4.267561336761977
 20
8.631589391307784
 30
0.0
 10
4.266184131542461
 20
8.629109518680806
 30
0.0
 10
4.264943291791436
 20
8.626438992530199
 30
0.0
 10
4.263798231311902
 20
8.62358007774992
 30
0.0
 10
4.262791428633705
 20
8.620446969701279
 30
0.0
 10
4.261960957640397
 20
8.61699149751256
 30
0.0
 10
4.261193750824654
 20
8.613193785237394
 30
0.0
 10
4.260650630001797
 20
8.609031599885222
 30
0.0
 10
4.260167804971808
 20
8.60453230250848
 30
0.0
 10
4.259857515682349
 20
8.599678864782916
 30
0.0
 10
4.259616127593009
 20
8.594479479727704
 30
0.0
 10
4.259607526633846
 20
8.59088896167642
 30
0.0
 10
4.259603095648207
 20
8.589039222174355
 30
0.0
  0
SPLINE
  5
AC
330
1F
100
AcDbEntity
  8
0
  6
Continuous
 62
     7
370
    15
100
AcDbSpline
210
0.0
220
0.0
230
1.0
 70
     8
 71
     3
 72
    27
 73
    23
 74
     0
 42
0.00000001
 43
0.00000001
 12
1.0
 22
0.0
 32
0.0
 13
1.0
 23
0.0
 33
0.0
 40
0.0
 40
0.0
 40
0.0
 40
0.0
 40
0.0656811979906387
 40
0.1284864641740648
 40
0.1881751303280078
 40
0.2451061306699862
 40
0.2994484245294756
 40
0.3508229360093822
 40
0.3999416805337781
 40
0.4466717436323722
 40
0.4912545333734984
 40
0.5333763442704369
 40
0.5738527549682242
 40
0.6125263117194527
 40
0.6495971364453296
 40
0.6855320415538507
 40
0.7201057860682011
 40
0.7538376629736497
 40
0.8189254160467134
 40
0.8804934616501646
 40
0.9403113338460568
 40
1.0
 40
1.0
 40
1.0
 40
1.0
 10
4.328500733443483
 20
8.589039222174355
 30
0.0
 10
4.32847907245006
 20
8.590695425816797
 30
0.0
 10
4.328436698916377
 20
8.593935314193985
 30
0.0
 10
4.328274730896648
 20
8.598680124456273
 30
0.0
 10
4.327856479932397
 20
8.603186729216477
 30
0.0
 10
4.327391947693636
 20
8.607474543100897
 30
0.0
 10
4.32670701772938
 20
8.611519830608948
 30
0.0
 10
4.32596852139551
 20
8.615356456800141
 30
0.0
 10
4.324976347683297
 20
8.618936890848147
 30
0.0
 10
4.323916514022904
 20
8.62231718934073
 30
0.0
 10
4.322703506324816
 20
8.625458947391943
 30
0.0
 10
4.321368241196565
 20
8.628376812996745
 30
0.0
 10
4.319942187701722
 20
8.63108487302654
 30
0.0
 10
4.318393280597026
 20
8.633575697498056
 30
0.0
 10
4.316739907247999
 20
8.63586044328196
 30
0.0
 10
4.314938428933135
 20
8.637893301335387
 30
0.0
 10
4.313060304019322
 20
8.63973727645777
 30
0.0
 10
4.31042970615225
 20
8.64184210201374
 30
0.0
 10
4.306985836475069
 20
8.64398823175717
 30
0.0
 10
4.302700574768673
 20
8.645963261672932
 30
0.0
 10
4.298241100585558
 20
8.647097446421787
 30
0.0
 10
4.295226397668548
 20
8.647257355360297
 30
0.0
 10
4.293720675902598
 20
8.64733722338574
 30
0.0
  0
SPLINE
  5
AD
330
1F
100
AcDbEntity
  8
0
  6
Continuous
 62
     7
370
    15
100
AcDbSpline
210
0.0
220
0.0
230
1.0
 70
     8
 71
     3
 72
    23
 73
    19
 74
     0
 42
0.00000001
 43
0.00000001
 12
1.0
 22
0.0
 32
0.0
 13
1.0
 23
0.0
 33
0.0
 40
0.0
 40
0.0
 40
0.0
 40
0.0
 40
0.0688142958243096
 40
0.1363648245522147
 40
0.2040193535112466
 40
0.2730637386246114
 40
0.3429133195614896
 40
0.4109654441389575
 40
0.4791687665134468
 40
0.5493080065097825
 40
0.5876515764176498
 40
0.6306466687627904
 40
0.6788787856966486
 40
0.7319342992295832
 40
0.7911114229480473
 40
0.8552831895130775
 40
0.9250859386773845
 40
1.0
 40
1.0
 40
1.0
 40
1.0
 10
3.72255484206452
 20
8.621114164128725
 30
0.0
 10
3.722507514462611
 20
8.622222296952728
 30
0.0
 10
3.722413728425081
 20
8.624418211861332
 30
0.0
 10
3.721648028876785
 20
8.627633011478956
 30
0.0
 10
3.720353171343066
 20
8.630667143373868
 30
0.0
 10
3.718608201346028
 20
8.633508264830235
 30
0.0
 10
3.716482250363252
 20
8.636087230808753
 30
0.0
 10
3.71398942309181
 20
8.63829381163779
 30
0.0
 10
3.711197879975665
 20
8.640114656703858
 30
0.0
 10
3.708588777678347
 20
8.641278214991726
 30
0.0
 10
3.70625672206841
 20
8.641991595040778
 30
0.0
 10
3.70423193230302
 20
8.642493609364047
 30
0.0
 10
3.701944078849501
 20
8.64289693491247
 30
0.0
 10
3.699382052919897
 20
8.643220086915433
 30
0.0
 10
3.696556791865374
 20
8.643497840626015
 30
0.0
 10
3.693454010326338
 20
8.64368491852594
 30
0.0
 10
3.69009429456802
 20
8.643795700577359
 30
0.0
 10
3.687765675229775
 20
8.643801176517538
 30
0.0
 10
3.686560242831732
 20
8.643804011191111
 30
0.0
  0
SPLINE
  5
AE
330
1F
100
AcDbEntity
  8
0
  6
Continuous
 62
     7
370
    15
100
AcDbSpline
210
0.0
220
0.0
230
1.0
 70
     8
 71
     3
 72
    23
 73
    19
 74
     0
 42
0.00000001
 43
0.00000001
 12
1.0
 22
0.0
 32
0.0
 13
1.0
 23
0.0
 33
0.0
 40
0.0
 40
0.0
 40
0.0
 40
0.0
 40
0.0716681496796057
 40
0.1389132862742052
 40
0.2011845700265596
 40
0.2591244282905456
 40
0.3122550414262358
 40
0.3606815096231102
 40
0.4050861433286449
 40
0.4451016585907113
 40
0.5187777804882605
 40
0.5894615790331977
 40
0.6584622419857172
 40
0.7272832183683671
 40
0.7963224869047191
 40
0.8631748932078812
 40
0.930949380987856
 40
1.0
 40
1.0
 40
1.0
 40
1.0
 10
3.68595297198578
 20
8.597679030119034
 30
0.0
 10
3.687130926274042
 20
8.597678508990917
 30
0.0
 10
3.689414137184255
 20
8.597677498896202
 30
0.0
 10
3.692717312964231
 20
8.597834734181381
 30
0.0
 10
3.695792907912719
 20
8.59801360497835
 30
0.0
 10
3.698629157997854
 20
8.598287201259323
 30
0.0
 10
3.701227330254782
 20
8.59863980250837
 30
0.0
 10
3.703586126050907
 20
8.599080864879967
 30
0.0
 10
3.705709395810622
 20
8.599594725614098
 30
0.0
 10
3.708185716220964
 20
8.600390065212917
 30
0.0
 10
3.710950933990921
 20
8.601650144672178
 30
0.0
 10
3.713956109576633
 20
8.603483432022356
 30
0.0
 10
3.716515256732166
 20
8.605789302855722
 30
0.0
 10
3.718677377295352
 20
8.608426053093297
 30
0.0
 10
3.720414756487294
 20
8.611325118008166
 30
0.0
 10
3.721639640516213
 20
8.614451746717465
 30
0.0
 10
3.722416902023775
 20
8.617727006481545
 30
0.0
 10
3.722508577041469
 20
8.619978113089605
 30
0.0
 10
3.72255484206452
 20
8.621114164128725
 30
0.0
  0
LINE
  5
AF
330
1F
100
AcDbEntity
  8
0
  6
Continuous
 62
     7
370
    15
100
AcDbLine
 10
3.6607236287
 20
8.5978722527
 30
0.0
 11
3.685952972
 21
8.5976790301
 31
0.0
  0
LINE
  5
B0
330
1F
100
AcDbEntity
  8
0
  6
Continuous
 62
     7
370
    15
100
AcDbLine
 10
3.6607236287
 20
8.6438040112
 30
0.0
 11
3.6607236287
 21
8.5978722527
 31
0.0
  0
LINE
  5
B1
330
1F
100
AcDbEntity
  8
0
  6
Continuous
 62
     7
370
    15
100
AcDbLine
 10
3.6865602428
 20
8.6438040112
 30
0.0
 11
3.6607236287
 21
8.6438040112
 31
0.0
  0
SPLINE
  5
B2
330
1F
100
AcDbEntity
  8
0
  6
Continuous
 62
     7
370
    15
100
AcDbSpline
210
0.0
220
0.0
230
1.0
 70
     8
 71
     3
 72
    23
 73
    19
 74
     0
 42
0.00000001
 43
0.00000001
 12
1.0
 22
0.0
 32
0.0
 13
1.0
 23
0.0
 33
0.0
 40
0.0
 40
0.0
 40
0.0
 40
0.0
 40
0.0700437554181558
 40
0.1392383167626456
 40
0.208197455044138
 40
0.2791733744245675
 40
0.3499868116864773
 40
0.4183538456626554
 40
0.4876095837571503
 40
0.5574110731083887
 40
0.5953301567632409
 40
0.6379640515652198
 40
0.6859127777112937
 40
0.7381851646524785
 40
0.7961026471849422
 40
0.8585165439469267
 40
0.9266577264685197
 40
1.0
 40
1.0
 40
1.0
 40
1.0
 10
3.83738423838998
 20
8.62092094158683
 30
0.0
 10
3.83733452789803
 20
8.622028757076944
 30
0.0
 10
3.837235709592483
 20
8.624230957161819
 30
0.0
 10
3.836501226790881
 20
8.627458467422045
 30
0.0
 10
3.835267001835624
 20
8.630538613264044
 30
0.0
 10
3.833556112287795
 20
8.63341156938032
 30
0.0
 10
3.8314796898484
 20
8.636017427804148
 30
0.0
 10
3.829066329883519
 20
8.638281094223947
 30
0.0
 10
3.826321713295579
 20
8.640100846299974
 30
0.0
 10
3.82376863333366
 20
8.64127538494756
 30
0.0
 10
3.821500870104233
 20
8.641992521775638
 30
0.0
 10
3.819531107904083
 20
8.64249428714797
 30
0.0
 10
3.817307065601472
 20
8.642894901567061
 30
0.0
 10
3.814828019164056
 20
8.643219291440927
 30
0.0
 10
3.812113183184513
 20
8.643496986764681
 30
0.0
 10
3.809139233779213
 20
8.643685411065233
 30
0.0
 10
3.805917436800298
 20
8.643795704617851
 30
0.0
 10
3.803680800152072
 20
8.643801175297249
 30
0.0
 10
3.802521371188284
 20
8.643804011191111
 30
0.0
  0
SPLINE
  5
B3
330
1F
100
AcDbEntity
  8
0
  6
Continuous
 62
     7
370
    15
100
AcDbSpline
210
0.0
220
0.0
230
1.0
 70
     8
 71
     3
 72
    23
 73
    19
 74
     0
 42
0.00000001
 43
0.00000001
 12
1.0
 22
0.0
 32
0.0
 13
1.0
 23
0.0
 33
0.0
 40
0.0
 40
0.0
 40
0.0
 40
0.0
 40
0.0725383714064942
 40
0.1400338305012514
 40
0.2024956806336242
 40
0.260575055669416
 40
0.3132283378464658
 40
0.3615831937532658
 40
0.4048783612951279
 40
0.4441274373055405
 40
0.5163996933371992
 40
0.5865066709977663
 40
0.6550853737960486
 40
0.7243837831470363
 40
0.7939735287256631
 40
0.8616376821817772
 40
0.9301109423064039
 40
0.9999999999999999
 40
0.9999999999999999
 40
0.9999999999999999
 40
0.9999999999999999
 10
3.801444845597732
 20
8.597568617237952
 30
0.0
 10
3.802622795432884
 20
8.59756800843515
 30
0.0
 10
3.804896803304253
 20
8.597566833153895
 30
0.0
 10
3.808181693982727
 20
8.59772373171607
 30
0.0
 10
3.811229303719068
 20
8.597904855049313
 30
0.0
 10
3.814030271253451
 20
8.5981700488864
 30
0.0
 10
3.816585859225235
 20
8.598544901543258
 30
0.0
 10
3.818900328865961
 20
8.598923316421926
 30
0.0
 10
3.820955733704343
 20
8.59947077164234
 30
0.0
 10
3.823361214088826
 20
8.600207900348604
 30
0.0
 10
3.82604166083988
 20
8.601465089941556
 30
0.0
 10
3.828957706057329
 20
8.603289888762562
 30
0.0
 10
3.831428988984544
 20
8.605615900896424
 30
0.0
 10
3.833567504605078
 20
8.608231169846288
 30
0.0
 10
3.835264586413676
 20
8.61114058439062
 30
0.0
 10
3.8365069483159
 20
8.614253534655425
 30
0.0
 10
3.837236915141236
 20
8.617538095660215
 30
0.0
 10
3.837334796781223
 20
8.619785660182075
 30
0.0
 10
3.83738423838998
 20
8.62092094158683
 30
0.0
  0
LINE
  5
B4
330
1F
100
AcDbEntity
  8
0
  6
Continuous
 62
     7
370
    15
100
AcDbLine
 10
3.7773196311
 20
8.5978722527
 30
0.0
 11
3.8014448456
 21
8.5975686172
 31
0.0
  0
LINE
  5
B5
330
1F
100
AcDbEntity
  8
0
  6
Continuous
 62
     7
370
    15
100
AcDbLine
 10
3.7773196311
 20
8.6438040112
 30
0.0
 11
3.7773196311
 21
8.5978722527
 31
0.0
  0
LINE
  5
B6
330
1F
100
AcDbEntity
  8
0
  6
Continuous
 62
     7
370
    15
100
AcDbLine
 10
3.8025213712
 20
8.6438040112
 30
0.0
 11
3.7773196311
 21
8.6438040112
 31
0.0
  0
SPLINE
  5
B7
330
1F
100
AcDbEntity
  8
0
  6
Continuous
 62
     7
370
    15
100
AcDbSpline
210
0.0
220
0.0
230
1.0
 70
     8
 71
     3
 72
    20
 73
    16
 74
     0
 42
0.00000001
 43
0.00000001
 12
1.0
 22
0.0
 32
0.0
 13
1.0
 23
0.0
 33
0.0
 40
0.0
 40
0.0
 40
0.0
 40
0.0
 40
0.2499999999999993
 40
0.2499999999999993
 40
0.3749999999999994
 40
0.3749999999999994
 40
0.4999999999999996
 40
0.4999999999999996
 40
0.6249999999999997
 40
0.6249999999999997
 40
0.7499999999999998
 40
0.7499999999999998
 40
0.8749999999999999
 40
0.8749999999999999
 40
1.0
 40
1.0
 40
1.0
 40
1.0
 10
5.65
 20
7.731250000000001
 30
0.0
 10
5.664207412331177
 20
7.750193216441573
 30
0.0
 10
5.675027837462445
 20
7.770861094110073
 30
0.0
 10
5.686236938012224
 20
7.804449727801063
 30
0.0
 10
5.689044997823756
 20
7.815889987896492
 30
0.0
 10
5.69278914967772
 20
7.838927969872811
 30
0.0
 10
5.693742278511587
 20
7.85057612750289
 30
0.0
 10
5.693757628651366
 20
7.874138859505962
 30
0.0
 10
5.692803768529388
 20
7.885939773854658
 30
0.0
 10
5.689070877462608
 20
7.908992623139054
 30
0.0
 10
5.686293426878162
 20
7.920334391663543
 30
0.0
 10
5.678879249294975
 20
7.942643501345565
 30
0.0
 10
5.674235081758528
 20
7.95357343814603
 30
0.0
 10
5.663360607351214
 20
7.974344850294273
 30
0.0
 10
5.65710325579145
 20
7.984278992278066
 30
0.0
 10
5.65
 20
7.993749999999999
 30
0.0
  0
SPLINE
  5
B8
330
1F
100
AcDbEntity
  8
0
  6
Continuous
 62
     7
370
    15
100
AcDbSpline
210
0.0
220
0.0
230
1.0
 70
     8
 71
     3
 72
    20
 73
    16
 74
     0
 42
0.00000001
 43
0.00000001
 12
1.0
 22
0.0
 32
0.0
 13
1.0
 23
0.0
 33
0.0
 40
0.0
 40
0.0
 40
0.0
 40
0.0
 40
0.2499999999999998
 40
0.2499999999999998
 40
0.3749999999999998
 40
0.3749999999999998
 40
0.4999999999999999
 40
0.4999999999999999
 40
0.6249999999999999
 40
0.6249999999999999
 40
0.7499999999999999
 40
0.7499999999999999
 40
0.875
 40
0.875
 40
1.0
 40
1.0
 40
1.0
 40
1.0
 10
5.649999999999999
 20
9.10625
 30
0.0
 10
5.664207412331177
 20
9.12519321644157
 30
0.0
 10
5.675027837462445
 20
9.145861094110073
 30
0.0
 10
5.686236938012226
 20
9.179449727801064
 30
0.0
 10
5.689044997823756
 20
9.19088998789649
 30
0.0
 10
5.69278914967772
 20
9.213927969872811
 30
0.0
 10
5.693742278511587
 20
9.22557612750289
 30
0.0
 10
5.693757628651366
 20
9.249138859505962
 30
0.0
 10
5.692803768529388
 20
9.260939773854659
 30
0.0
 10
5.689070877462608
 20
9.283992623139055
 30
0.0
 10
5.686293426878163
 20
9.295334391663543
 30
0.0
 10
5.678879249294976
 20
9.317643501345566
 30
0.0
 10
5.674235081758528
 20
9.32857343814603
 30
0.0
 10
5.663360607351213
 20
9.349344850294273
 30
0.0
 10
5.65710325579145
 20
9.359278992278066
 30
0.0
 10
5.649999999999999
 20
9.368749999999999
 30
0.0
  0
LINE
  5
B9
330
1F
100
AcDbEntity
  8
0
  6
Continuous
 62
     7
370
    15
100
AcDbLine
 10
6.025
 20
9.49
 30
0.0
 11
5.65
 21
9.49
 31
0.0
  0
LINE
  5
BA
330
1F
100
AcDbEntity
  8
0
  6
Continuous
 62
     7
370
    15
100
AcDbLine
 10
6.025
 20
9.49
 30
0.0
 11
6.025
 21
7.61
 31
0.0
  0
LINE
  5
BB
330
1F
100
AcDbEntity
  8
0
  6
Continuous
 62
     7
370
    15
100
AcDbLine
 10
5.65
 20
7.61
 30
0.0
 11
6.025
 21
7.61
 31
0.0
  0
ARC
  5
BC
330
1F
100
AcDbEntity
  8
0
  6
Continuous
 62
     7
370
    15
100
AcDbCircle
 10
6.015
 20
7.61
 30
0.0
 40
0.0099999999999989
100
AcDbArc
 50
270.0
 51
0.0
  0
LINE
  5
BD
330
1F
100
AcDbEntity
  8
0
  6
Continuous
 62
     7
370
    15
100
AcDbLine
 10
6.015
 20
7.6
 30
0.0
 11
5.65
 21
7.6
 31
0.0
  0
LINE
  5
BE
330
1F
100
AcDbEntity
  8
0
  6
Continuous
 62
     7
370
    15
100
AcDbLine
 10
5.65
 20
7.61
 30
0.0
 11
5.65
 21
7.6
 31
0.0
  0
LINE
  5
BF
330
1F
100
AcDbEntity
  8
0
  6
Continuous
 62
     7
370
    15
100
AcDbLine
 10
5.65
 20
9.5
 30
0.0
 11
6.015
 21
9.5
 31
0.0
  0
ARC
  5
C0
330
1F
100
AcDbEntity
  8
0
  6
Continuous
 62
     7
370
    15
100
AcDbCircle
 10
6.015
 20
9.49
 30
0.0
 40
0.0099999999999989
100
AcDbArc
 50
0.0
 51
90.0
  0
LINE
  5
C1
330
1F
100
AcDbEntity
  8
0
  6
Continuous
 62
     7
370
    15
100
AcDbLine
 10
5.65
 20
9.5
 30
0.0
 11
5.65
 21
9.49
 31
0.0
  0
LINE
  5
C2
330
1F
100
AcDbEntity
  8
0
  6
Continuous
 62
     7
370
    15
100
AcDbLine
 10
5.65
 20
7.6
 30
0.0
 11
2.0
 21
7.6
 31
0.0
  0
LINE
  5
C3
330
1F
100
AcDbEntity
  8
0
  6
Continuous
 62
     7
370
    15
100
AcDbLine
 10
2.0
 20
7.61
 30
0.0
 11
2.0
 21
7.6
 31
0.0
  0
LINE
  5
C4
330
1F
100
AcDbEntity
  8
0
  6
Continuous
 62
     7
370
    15
100
AcDbLine
 10
1.635
 20
9.5
 30
0.0
 11
2.0
 21
9.5
 31
0.0
  0
LINE
  5
C5
330
1F
100
AcDbEntity
  8
0
  6
Continuous
 62
     7
370
    15
100
AcDbLine
 10
2.0
 20
9.5
 30
0.0
 11
2.0
 21
9.49
 31
0.0
  0
LINE
  5
C6
330
1F
100
AcDbEntity
  8
0
  6
Continuous
 62
     7
370
    15
100
AcDbLine
 10
2.0
 20
9.49
 30
0.0
 11
1.625
 21
9.49
 31
0.0
  0
ARC
  5
C7
330
1F
100
AcDbEntity
  8
0
  6
Continuous
 62
     7
370
    15
100
AcDbCircle
 10
1.635
 20
9.49
 30
0.0
 40
0.01
100
AcDbArc
 50
90.0
 51
180.0
  0
LINE
  5
C8
330
1F
100
AcDbEntity
  8
0
  6
Continuous
 62
     7
370
    15
100
AcDbLine
 10
2.0
 20
7.6
 30
0.0
 11
1.635
 21
7.6
 31
0.0
  0
ARC
  5
C9
330
1F
100
AcDbEntity
  8
0
  6
Continuous
 62
     7
370
    15
100
AcDbCircle
 10
1.635
 20
7.61
 30
0.0
 40
0.01
100
AcDbArc
 50
180.0
 51
270.0
  0
LINE
  5
CA
330
1F
100
AcDbEntity
  8
0
  6
Continuous
 62
     7
370
    15
100
AcDbLine
 10
1.625
 20
7.61
 30
0.0
 11
2.0
 21
7.61
 31
0.0
  0
LINE
  5
CB
330
1F
100
AcDbEntity
  8
0
  6
Continuous
 62
     7
370
    15
100
AcDbLine
 10
4.0370107274
 20
8.6259171245
 30
0.0
 11
3.9959371356
 21
8.5660733429
 31
0.0
  0
LINE
  5
CC
330
1F
100
AcDbEntity
  8
0
  6
Continuous
 62
     7
370
    15
100
AcDbLine
 10
4.0370107274
 20
8.5660733429
 30
0.0
 11
4.0370107274
 21
8.6259171245
 31
0.0
  0
LINE
  5
CD
330
1F
100
AcDbEntity
  8
0
  6
Continuous
 62
     7
370
    15
100
AcDbLine
 10
3.9959371356
 20
8.5660733429
 30
0.0
 11
4.0370107274
 21
8.5660733429
 31
0.0
  0
LINE
  5
CE
330
1F
100
AcDbEntity
  8
0
  6
Continuous
 62
     7
370
    15
100
AcDbLine
 10
1.625
 20
7.61
 30
0.0
 11
1.625
 21
9.49
 31
0.0
  0
LINE
  5
CF
330
1F
100
AcDbEntity
  8
0
  6
Continuous
 62
     7
370
    15
100
AcDbLine
 10
2.0
 20
9.5
 30
0.0
 11
5.65
 21
9.5
 31
0.0
  0
CIRCLE
  5
D0
330
1F
100
AcDbEntity
  8
0
  6
Continuous
 62
     7
370
    15
100
AcDbCircle
 10
5.475
 20
7.8625
 30
0.0
 40
0.1285000000000007
  0
CIRCLE
  5
D1
330
1F
100
AcDbEntity
  8
0
  6
Continuous
 62
     7
370
    15
100
AcDbCircle
 10
5.475
 20
9.2375
 30
0.0
 40
0.1285000000000007
  0
CIRCLE
  5
D2
330
1F
100
AcDbEntity
  8
0
  6
Continuous
 62
     7
370
    15
100
AcDbCircle
 10
5.475
 20
9.2375
 30
0.0
 40
0.1004999999999994
  0
CIRCLE
  5
D3
330
1F
100
AcDbEntity
  8
0
  6
Continuous
 62
     7
370
    15
100
AcDbCircle
 10
5.475
 20
7.8625
 30
0.0
 40
0.1004999999999994
  0
CIRCLE
  5
D4
330
1F
100
AcDbEntity
  8
0
  6
Continuous
 62
     7
370
    15
100
AcDbCircle
 10
5.475
 20
8.55
 30
0.0
 40
0.045286025882473
  0
CIRCLE
  5
D5
330
1F
100
AcDbEntity
  8
0
  6
Continuous
 62
     7
370
    15
100
AcDbCircle
 10
5.075
 20
8.05
 30
0.0
 40
0.0979999999999999
  0
CIRCLE
  5
D6
330
1F
100
AcDbEntity
  8
0
  6
Continuous
 62
     7
370
    15
100
AcDbCircle
 10
2.575
 20
8.05
 30
0.0
 40
0.0979999999999994
  0
CIRCLE
  5
D7
330
1F
100
AcDbEntity
  8
0
  6
Continuous
 62
     7
370
    15
100
AcDbCircle
 10
5.075
 20
9.05
 30
0.0
 40
0.0979999999999999
  0
CIRCLE
  5
D8
330
1F
100
AcDbEntity
  8
0
  6
Continuous
 62
     7
370
    15
100
AcDbCircle
 10
2.575
 20
9.05
 30
0.0
 40
0.0979999999999994
  0
INSERT
  5
F8
330
1F
100
AcDbEntity
  8
0
  6
Continuous
 62
     7
370
     0
100
AcDbBlockReference
  2
SW_CENTERMARKSYMBOL_0
 10
5.075
 20
8.05
 30
0.0
  0
INSERT
  5
104
330
1F
100
AcDbEntity
  8
0
  6
Continuous
 62
     7
370
     0
100
AcDbBlockReference
  2
SW_CENTERMARKSYMBOL_1
 10
5.475
 20
7.8625
 30
0.0
  0
INSERT
  5
110
330
1F
100
AcDbEntity
  8
0
  6
Continuous
 62
     7
370
     0
100
AcDbBlockReference
  2
SW_CENTERMARKSYMBOL_2
 10
5.475
 20
9.2375
 30
0.0
  0
INSERT
  5
11C
330
1F
100
AcDbEntity
  8
0
  6
Continuous
 62
     7
370
     0
100
AcDbBlockReference
  2
SW_CENTERMARKSYMBOL_3
 10
5.475
 20
8.55
 30
0.0
  0
CIRCLE
  5
11D
330
1F
100
AcDbEntity
  8
0
  6
HIDDEN
 62
     7
370
     0
100
AcDbCircle
 10
5.475
 20
7.8625
 30
0.0
 40
0.1250000000000009
  0
CIRCLE
  5
11E
330
1F
100
AcDbEntity
  8
0
  6
HIDDEN
 62
     7
370
     0
100
AcDbCircle
 10
5.475
 20
9.2375
 30
0.0
 40
0.125
  0
CIRCLE
  5
11F
330
1F
100
AcDbEntity
  8
0
  6
HIDDEN
 62
     7
370
     0
100
AcDbCircle
 10
5.475
 20
8.55
 30
0.0
 40
0.15625
  0
LINE
  5
120
330
1F
100
AcDbEntity
  8
0
  6
Continuous
 62
     7
370
    15
100
AcDbLine
 10
2.2501968504
 20
6.4
 30
0.0
 11
5.3998031496
 21
6.4
 31
0.0
  0
LINE
  5
121
330
1F
100
AcDbEntity
  8
0
  6
Continuous
 62
     7
370
    15
100
AcDbLine
 10
5.3998031496
 20
6.4
 30
0.0
 11
5.3898031496
 21
6.39
 31
0.0
  0
LINE
  5
122
330
1F
100
AcDbEntity
  8
0
  6
Continuous
 62
     7
370
    15
100
AcDbLine
 10
5.3898031496
 20
6.39
 30
0.0
 11
2.2601968504
 21
6.39
 31
0.0
  0
LINE
  5
123
330
1F
100
AcDbEntity
  8
0
  6
Continuous
 62
     7
370
    15
100
AcDbLine
 10
2.2501968504
 20
6.4
 30
0.0
 11
2.2601968504
 21
6.39
 31
0.0
  0
LINE
  5
124
330
1F
100
AcDbEntity
  8
0
  6
Continuous
 62
     7
370
    15
100
AcDbLine
 10
2.2501968504
 20
6.025
 30
0.0
 11
2.2501968504
 21
6.4
 31
0.0
  0
LINE
  5
125
330
1F
100
AcDbEntity
  8
0
  6
Continuous
 62
     7
370
    15
100
AcDbLine
 10
2.2601968504
 20
6.39
 30
0.0
 11
2.2601968504
 21
6.025
 31
0.0
  0
LINE
  5
126
330
1F
100
AcDbEntity
  8
0
  6
Continuous
 62
     7
370
    15
100
AcDbLine
 10
2.2501968504
 20
6.025
 30
0.0
 11
2.2601968504
 21
6.025
 31
0.0
  0
LINE
  5
127
330
1F
100
AcDbEntity
  8
0
  6
Continuous
 62
     7
370
    15
100
AcDbLine
 10
5.3998031496
 20
6.4
 30
0.0
 11
5.3998031496
 21
6.025
 31
0.0
  0
LINE
  5
128
330
1F
100
AcDbEntity
  8
0
  6
Continuous
 62
     7
370
    15
100
AcDbLine
 10
5.3998031496
 20
6.025
 30
0.0
 11
5.3898031496
 21
6.025
 31
0.0
  0
LINE
  5
129
330
1F
100
AcDbEntity
  8
0
  6
Continuous
 62
     7
370
    15
100
AcDbLine
 10
5.3898031496
 20
6.025
 30
0.0
 11
5.3898031496
 21
6.39
 31
0.0
  0
LINE
  5
12A
330
1F
100
AcDbEntity
  8
0
  6
Continuous
 62
     7
370
    15
100
AcDbLine
 10
6.015
 20
2.275
 30
0.0
 11
6.015
 21
2.865
 31
0.0
  0
ARC
  5
12B
330
1F
100
AcDbEntity
  8
0
  6
Continuous
 62
     7
370
    15
100
AcDbCircle
 10
5.65
 20
2.275
 30
0.0
 40
0.3650000000000002
100
AcDbArc
 50
270.0
 51
0.0
  0
LINE
  5
12C
330
1F
100
AcDbEntity
  8
0
  6
Continuous
 62
     7
370
    15
100
AcDbLine
 10
2.0
 20
1.91
 30
0.0
 11
5.65
 21
1.91
 31
0.0
  0
ARC
  5
12D
330
1F
100
AcDbEntity
  8
0
  6
Continuous
 62
     7
370
    15
100
AcDbCircle
 10
2.0
 20
2.275
 30
0.0
 40
0.365
100
AcDbArc
 50
180.0
 51
270.0
  0
LINE
  5
12E
330
1F
100
AcDbEntity
  8
0
  6
Continuous
 62
     7
370
    15
100
AcDbLine
 10
1.635
 20
5.2854567803
 30
0.0
 11
1.635
 21
2.275
 31
0.0
  0
ARC
  5
12F
330
1F
100
AcDbEntity
  8
0
  6
Continuous
 62
     7
370
    15
100
AcDbCircle
 10
2.0
 20
5.2854567803
 30
0.0
 40
0.3650000000000002
100
AcDbArc
 50
99.5788169881
 51
180.0
  0
ARC
  5
130
330
1F
100
AcDbEntity
  8
0
  6
Continuous
 62
     7
370
    15
100
AcDbCircle
 10
1.8751968504
 20
6.025
 30
0.0
 40
0.3850000000000004
100
AcDbArc
 50
279.5788169881
 51
0.0
  0
ARC
  5
131
330
1F
100
AcDbEntity
  8
0
  6
Continuous
 62
     7
370
    15
100
AcDbCircle
 10
5.7748031496
 20
6.025
 30
0.0
 40
0.3850000000000005
100
AcDbArc
 50
180.0
 51
260.4211830119
  0
ARC
  5
132
330
1F
100
AcDbEntity
  8
0
  6
Continuous
 62
     7
370
    15
100
AcDbCircle
 10
5.65
 20
5.2854567803
 30
0.0
 40
0.3650000000000002
100
AcDbArc
 50
0.0
 51
80.4211830119
  0
LINE
  5
133
330
1F
100
AcDbEntity
  8
0
  6
Continuous
 62
     7
370
    15
100
AcDbLine
 10
6.015
 20
3.01
 30
0.0
 11
6.015
 21
5.2854567803
 31
0.0
  0
LINE
  5
134
330
1F
100
AcDbEntity
  8
0
  6
Continuous
 62
     7
370
    15
100
AcDbLine
 10
5.1976346672
 20
3.01
 30
0.0
 11
6.015
 21
3.01
 31
0.0
  0
ARC
  5
135
330
1F
100
AcDbEntity
  8
0
  6
Continuous
 62
     7
370
    15
100
AcDbCircle
 10
3.825
 20
4.15
 30
0.0
 40
1.784299842952058
100
AcDbArc
 50
320.289703837
 51
313.9314460663
  0
LINE
  5
136
330
1F
100
AcDbEntity
  8
0
  6
Continuous
 62
     7
370
    15
100
AcDbLine
 10
6.015
 20
2.865
 30
0.0
 11
5.0629422158
 21
2.865
 31
0.0
  0
ARC
  5
137
330
1F
100
AcDbEntity
  8
0
  6
Continuous
 62
     7
370
    15
100
AcDbCircle
 10
5.7748031496
 20
6.025
 30
0.0
 40
0.3750000000000001
100
AcDbArc
 50
180.0
 51
260.4211830119
  0
LINE
  5
138
330
1F
100
AcDbEntity
  8
0
  6
Continuous
 62
     7
370
    15
100
AcDbLine
 10
5.7124015748
 20
5.6552283901
 30
0.0
 11
5.7107375328
 21
5.6453678139
 31
0.0
  0
LINE
  5
139
330
1F
100
AcDbEntity
  8
0
  6
Continuous
 62
     7
370
    15
100
AcDbLine
 10
1.9392624672
 20
5.6453678139
 30
0.0
 11
1.9375984252
 21
5.6552283901
 31
0.0
  0
ARC
  5
13A
330
1F
100
AcDbEntity
  8
0
  6
Continuous
 62
     7
370
    15
100
AcDbCircle
 10
1.8751968504
 20
6.025
 30
0.0
 40
0.3750000000000002
100
AcDbArc
 50
279.5788169881
 51
0.0
  0
SPLINE
  5
13B
330
1F
100
AcDbEntity
  8
0
  6
Continuous
 62
     7
370
    15
100
AcDbSpline
210
0.0
220
0.0
230
1.0
 70
     8
 71
     3
 72
    12
 73
     8
 74
     0
 42
0.00000001
 43
0.00000001
 12
1.0
 22
0.0
 32
0.0
 13
1.0
 23
0.0
 33
0.0
 40
0.0
 40
0.0
 40
0.0
 40
0.0
 40
0.25
 40
0.25
 40
0.5
 40
0.5
 40
1.0
 40
1.0
 40
1.0
 40
1.0
 10
5.177467030981159
 20
3.000603073792141
 30
0.0
 10
5.178671473410001
 20
3.001160119499903
 30
0.0
 10
5.180244386740937
 20
3.001888438641439
 30
0.0
 10
5.18352673221247
 20
3.003411458649894
 30
0.0
 10
5.185228193597987
 20
3.004202338483294
 30
0.0
 10
5.1904333671054
 20
3.006626595712429
 30
0.0
 10
5.194062123824078
 20
3.008323165963577
 30
0.0
 10
5.197634667185241
 20
3.01
 30
0.0
  0
ARC
  5
13C
330
1F
100
AcDbEntity
  8
0
  6
Continuous
 62
     7
370
    15
100
AcDbCircle
 10
3.825
 20
4.15
 30
0.0
 40
1.7749029167442
100
AcDbArc
 50
319.6403839043
 51
314.053658309
  0
SPLINE
  5
13D
330
1F
100
AcDbEntity
  8
0
  6
Continuous
 62
     7
370
    15
100
AcDbSpline
210
0.0
220
0.0
230
1.0
 70
     8
 71
     3
 72
    10
 73
     6
 74
     0
 42
0.00000001
 43
0.00000001
 12
1.0
 22
0.0
 32
0.0
 13
1.0
 23
0.0
 33
0.0
 40
0.0
 40
0.0
 40
0.0
 40
0.0
 40
0.5
 40
0.5
 40
1.0
 40
1.0
 40
1.0
 40
1.0
 10
5.059146329249132
 20
2.87439692620786
 30
0.0
 10
5.059442055065077
 20
2.873665964771833
 30
0.0
 10
5.059983594934985
 20
2.872327170533552
 30
0.0
 10
5.061340640505811
 20
2.868968768107516
 30
0.0
 10
5.062147309706185
 20
2.866970810798361
 30
0.0
 10
5.062942215759176
 20
2.865
 30
0.0
  0
LINE
  5
13E
330
1F
100
AcDbEntity
  8
0
  6
Continuous
 62
     7
370
    15
100
AcDbLine
 10
1.635
 20
5.2854567803
 30
0.0
 11
1.625
 21
5.2854567803
 31
0.0
  0
ARC
  5
13F
330
1F
100
AcDbEntity
  8
0
  6
Continuous
 62
     7
370
    15
100
AcDbCircle
 10
2.0
 20
5.2854567803
 30
0.0
 40
0.375
100
AcDbArc
 50
99.5788169881
 51
180.0
  0
ARC
  5
140
330
1F
100
AcDbEntity
  8
0
  6
Continuous
 62
     7
370
    15
100
AcDbCircle
 10
5.65
 20
5.2854567803
 30
0.0
 40
0.3750000000000009
100
AcDbArc
 50
0.0
 51
80.4211830119
  0
LINE
  5
141
330
1F
100
AcDbEntity
  8
0
  6
Continuous
 62
     7
370
    15
100
AcDbLine
 10
6.025
 20
5.2854567803
 30
0.0
 11
6.015
 21
5.2854567803
 31
0.0
  0
LINE
  5
142
330
1F
100
AcDbEntity
  8
0
  6
Continuous
 62
     7
370
    15
100
AcDbLine
 10
6.025
 20
5.2854567803
 30
0.0
 11
6.025
 21
3.0
 31
0.0
  0
LINE
  5
143
330
1F
100
AcDbEntity
  8
0
  6
Continuous
 62
     7
370
    15
100
AcDbLine
 10
6.025
 20
3.0
 30
0.0
 11
6.015
 21
3.01
 31
0.0
  0
LINE
  5
144
330
1F
100
AcDbEntity
  8
0
  6
Continuous
 62
     7
370
    15
100
AcDbLine
 10
1.635
 20
2.275
 30
0.0
 11
1.625
 21
2.275
 31
0.0
  0
LINE
  5
145
330
1F
100
AcDbEntity
  8
0
  6
Continuous
 62
     7
370
    15
100
AcDbLine
 10
1.625
 20
2.275
 30
0.0
 11
1.625
 21
5.2854567803
 31
0.0
  0
LINE
  5
146
330
1F
100
AcDbEntity
  8
0
  6
Continuous
 62
     7
370
    15
100
AcDbLine
 10
6.025
 20
3.0
 30
0.0
 11
5.1753195667
 21
3.0
 31
0.0
  0
SPLINE
  5
147
330
1F
100
AcDbEntity
  8
0
  6
Continuous
 62
     7
370
    15
100
AcDbSpline
210
0.0
220
0.0
230
1.0
 70
     8
 71
     3
 72
     8
 73
     4
 74
     0
 42
0.00000001
 43
0.00000001
 12
1.0
 22
0.0
 32
0.0
 13
1.0
 23
0.0
 33
0.0
 40
0.0
 40
0.0
 40
0.0
 40
0.0
 40
1.0
 40
1.0
 40
1.0
 40
1.0
 10
5.175319566749237
 20
3.0
 30
0.0
 10
5.175917070304472
 20
3.0
 30
0.0
 10
5.176646391199228
 20
3.000223533967401
 30
0.0
 10
5.177467030980982
 20
3.000603073791887
 30
0.0
  0
LINE
  5
148
330
1F
100
AcDbEntity
  8
0
  6
Continuous
 62
     7
370
    15
100
AcDbLine
 10
6.015
 20
2.865
 30
0.0
 11
6.025
 21
2.875
 31
0.0
  0
SPLINE
  5
149
330
1F
100
AcDbEntity
  8
0
  6
Continuous
 62
     7
370
    15
100
AcDbSpline
210
0.0
220
0.0
230
1.0
 70
     8
 71
     3
 72
     8
 73
     4
 74
     0
 42
0.00000001
 43
0.00000001
 12
1.0
 22
0.0
 32
0.0
 13
1.0
 23
0.0
 33
0.0
 40
0.0
 40
0.0
 40
0.0
 40
0.0
 40
1.0
 40
1.0
 40
1.0
 40
1.0
 10
5.059146329249132
 20
2.87439692620786
 30
0.0
 10
5.058975740505113
 20
2.874818579599534
 30
0.0
 10
5.058555172019782
 20
2.8749999999999
 30
0.0
 10
5.057979291126593
 20
2.875000000000001
 30
0.0
  0
LINE
  5
14A
330
1F
100
AcDbEntity
  8
0
  6
Continuous
 62
     7
370
    15
100
AcDbLine
 10
5.0579792911
 20
2.875
 30
0.0
 11
6.025
 21
2.875
 31
0.0
  0
LINE
  5
14B
330
1F
100
AcDbEntity
  8
0
  6
Continuous
 62
     7
370
    15
100
AcDbLine
 10
6.025
 20
2.875
 30
0.0
 11
6.025
 21
2.275
 31
0.0
  0
LINE
  5
14C
330
1F
100
AcDbEntity
  8
0
  6
Continuous
 62
     7
370
    15
100
AcDbLine
 10
6.015
 20
2.275
 30
0.0
 11
6.025
 21
2.275
 31
0.0
  0
LINE
  5
14D
330
1F
100
AcDbEntity
  8
0
  6
Continuous
 62
     7
370
    15
100
AcDbLine
 10
2.0
 20
1.91
 30
0.0
 11
2.0
 21
1.9
 31
0.0
  0
ARC
  5
14E
330
1F
100
AcDbEntity
  8
0
  6
Continuous
 62
     7
370
    15
100
AcDbCircle
 10
2.0
 20
2.275
 30
0.0
 40
0.375
100
AcDbArc
 50
180.0
 51
270.0
  0
ARC
  5
14F
330
1F
100
AcDbEntity
  8
0
  6
Continuous
 62
     7
370
    15
100
AcDbCircle
 10
5.65
 20
2.275
 30
0.0
 40
0.3749999999999998
100
AcDbArc
 50
270.0
 51
0.0
  0
LINE
  5
150
330
1F
100
AcDbEntity
  8
0
  6
Continuous
 62
     7
370
    15
100
AcDbLine
 10
5.65
 20
1.91
 30
0.0
 11
5.65
 21
1.9
 31
0.0
  0
LINE
  5
151
330
1F
100
AcDbEntity
  8
0
  6
Continuous
 62
     7
370
    15
100
AcDbLine
 10
5.65
 20
1.9
 30
0.0
 11
2.0
 21
1.9
 31
0.0
  0
SPLINE
  5
152
330
1F
100
AcDbEntity
  8
0
  6
Continuous
 62
     7
370
    15
100
AcDbSpline
210
0.0
220
0.0
230
1.0
 70
    24
 71
     3
 72
     8
 73
     4
 74
     0
 42
0.00000001
 43
0.00000001
 12
1.0
 22
0.0
 32
0.0
 13
1.0
 23
0.0
 33
0.0
 40
0.0
 40
0.0
 40
0.0
 40
0.0
 40
1.0
 40
1.0
 40
1.0
 40
1.0
 10
5.175319566749237
 20
3.0
 30
0.0
 10
5.164952139330242
 20
3.0
 30
0.0
 10
5.154542969744936
 20
3.0
 30
0.0
 10
5.144090595827292
 20
3.0
 30
0.0
  0
ARC
  5
153
330
1F
100
AcDbEntity
  8
0
  6
Continuous
 62
     7
370
    15
100
AcDbCircle
 10
3.825
 20
4.15
 30
0.0
 40
1.75
100
AcDbArc
 50
318.9176668595
 51
313.2332348092
  0
SPLINE
  5
154
330
1F
100
AcDbEntity
  8
0
  6
Continuous
 62
     7
370
    15
100
AcDbSpline
210
0.0
220
0.0
230
1.0
 70
    24
 71
     3
 72
     8
 73
     4
 74
     0
 42
0.00000001
 43
0.00000001
 12
1.0
 22
0.0
 32
0.0
 13
1.0
 23
0.0
 33
0.0
 40
0.0
 40
0.0
 40
0.0
 40
0.0
 40
1.0
 40
1.0
 40
1.0
 40
1.0
 10
5.023697209473684
 20
2.875
 30
0.0
 10
5.035191267417653
 20
2.875
 30
0.0
 10
5.046617426141938
 20
2.875
 30
0.0
 10
5.057979291126593
 20
2.875
 30
0.0
  0
LINE
  5
155
330
1F
100
AcDbEntity
  8
0
  6
Continuous
 62
     7
370
    15
100
AcDbLine
 10
8.2796321861
 20
9.5
 30
0.0
 11
8.6395432197
 21
9.5
 31
0.0
  0
LINE
  5
156
330
1F
100
AcDbEntity
  8
0
  6
Continuous
 62
     7
370
    15
100
AcDbLine
 10
8.6395432197
 20
9.5
 30
0.0
 11
8.6395432197
 21
9.49
 31
0.0
  0
LINE
  5
157
330
1F
100
AcDbEntity
  8
0
  6
Continuous
 62
     7
370
    15
100
AcDbLine
 10
8.6395432197
 20
9.49
 30
0.0
 11
8.2697716099
 21
9.49
 31
0.0
  0
ARC
  5
158
330
1F
100
AcDbEntity
  8
0
  6
Continuous
 62
     7
370
    15
100
AcDbCircle
 10
8.2797023908
 20
9.4900692259
 30
0.0
 40
0.0099310222558455
100
AcDbArc
 50
90.4050406126
 51
180.399393293
  0
LINE
  5
159
330
1F
100
AcDbEntity
  8
0
  6
Continuous
 62
     7
370
    15
100
AcDbLine
 10
8.6395432197
 20
7.6
 30
0.0
 11
8.2796321861
 21
7.6
 31
0.0
  0
ARC
  5
15A
330
1F
100
AcDbEntity
  8
0
  6
Continuous
 62
     7
370
    15
100
AcDbCircle
 10
8.2797023908
 20
7.6099307741
 30
0.0
 40
0.0099310222558473
100
AcDbArc
 50
179.600606707
 51
269.5949593873
  0
LINE
  5
15B
330
1F
100
AcDbEntity
  8
0
  6
Continuous
 62
     7
370
    15
100
AcDbLine
 10
8.2697716099
 20
7.61
 30
0.0
 11
8.6395432197
 21
7.61
 31
0.0
  0
LINE
  5
15C
330
1F
100
AcDbEntity
  8
0
  6
Continuous
 62
     7
370
    15
100
AcDbLine
 10
8.6395432197
 20
7.6
 30
0.0
 11
8.6395432197
 21
7.61
 31
0.0
  0
LINE
  5
15D
330
1F
100
AcDbEntity
  8
0
  6
Continuous
 62
     7
370
    15
100
AcDbLine
 10
8.6395432197
 20
9.49
 30
0.0
 11
8.6395432197
 21
7.61
 31
0.0
  0
LINE
  5
15E
330
1F
100
AcDbEntity
  8
0
  6
Continuous
 62
     7
370
    15
100
AcDbLine
 10
8.2697716099
 20
7.61
 30
0.0
 11
8.2697716099
 21
9.49
 31
0.0
  0
LINE
  5
15F
330
1F
100
AcDbEntity
  8
0
  6
Continuous
 62
     7
370
    15
100
AcDbLine
 10
11.65
 20
7.6
 30
0.0
 11
8.6395432197
 21
7.6
 31
0.0
  0
LINE
  5
160
330
1F
100
AcDbEntity
  8
0
  6
Continuous
 62
     7
370
    15
100
AcDbLine
 10
8.6395432197
 20
7.61
 30
0.0
 11
11.65
 21
7.61
 31
0.0
  0
LINE
  5
161
330
1F
100
AcDbEntity
  8
0
  6
Continuous
 62
     7
370
    15
100
AcDbLine
 10
11.65
 20
7.6
 30
0.0
 11
11.65
 21
7.61
 31
0.0
  0
LINE
  5
162
330
1F
100
AcDbEntity
  8
0
  6
Continuous
 62
     7
370
    15
100
AcDbLine
 10
11.65
 20
9.49
 30
0.0
 11
8.6395432197
 21
9.49
 31
0.0
  0
LINE
  5
163
330
1F
100
AcDbEntity
  8
0
  6
Continuous
 62
     7
370
    15
100
AcDbLine
 10
11.65
 20
7.61
 30
0.0
 11
11.65
 21
9.49
 31
0.0
  0
LINE
  5
164
330
1F
100
AcDbEntity
  8
0
  6
Continuous
 62
     7
370
    15
100
AcDbLine
 10
8.6395432197
 20
9.5
 30
0.0
 11
11.65
 21
9.5
 31
0.0
  0
LINE
  5
165
330
1F
100
AcDbEntity
  8
0
  6
Continuous
 62
     7
370
    15
100
AcDbLine
 10
11.65
 20
9.5
 30
0.0
 11
11.65
 21
9.49
 31
0.0
  0
LINE
  5
166
330
1F
100
AcDbEntity
  8
0
  6
Continuous
 62
     7
370
    15
100
AcDbLine
 10
12.015
 20
7.6
 30
0.0
 11
11.65
 21
7.6
 31
0.0
  0
LINE
  5
167
330
1F
100
AcDbEntity
  8
0
  6
Continuous
 62
     7
370
    15
100
AcDbLine
 10
11.65
 20
7.61
 30
0.0
 11
12.025
 21
7.61
 31
0.0
  0
ARC
  5
168
330
1F
100
AcDbEntity
  8
0
  6
Continuous
 62
     7
370
    15
100
AcDbCircle
 10
12.015
 20
7.61
 30
0.0
 40
0.0099999999999998
100
AcDbArc
 50
270.0
 51
0.0
  0
LINE
  5
169
330
1F
100
AcDbEntity
  8
0
  6
Continuous
 62
     7
370
    15
100
AcDbLine
 10
11.65
 20
9.5
 30
0.0
 11
12.015
 21
9.5
 31
0.0
  0
ARC
  5
16A
330
1F
100
AcDbEntity
  8
0
  6
Continuous
 62
     7
370
    15
100
AcDbCircle
 10
12.015
 20
9.49
 30
0.0
 40
0.0099999999999998
100
AcDbArc
 50
0.0
 51
90.0
  0
LINE
  5
16B
330
1F
100
AcDbEntity
  8
0
  6
Continuous
 62
     7
370
    15
100
AcDbLine
 10
12.025
 20
9.49
 30
0.0
 11
11.65
 21
9.49
 31
0.0
  0
LINE
  5
16C
330
1F
100
AcDbEntity
  8
0
  6
Continuous
 62
     7
370
    15
100
AcDbLine
 10
12.025
 20
9.49
 30
0.0
 11
12.025
 21
7.61
 31
0.0
  0
LINE
  5
16D
330
1F
100
AcDbEntity
  8
0
  6
Continuous
 62
     7
370
    15
100
AcDbLine
 10
8.2697716099
 20
9.49
 30
0.0
 11
7.9
 21
9.49
 31
0.0
  0
LINE
  5
16E
330
1F
100
AcDbEntity
  8
0
  6
Continuous
 62
     7
370
    15
100
AcDbLine
 10
7.9
 20
7.61
 30
0.0
 11
8.2697716099
 21
7.61
 31
0.0
  0
LINE
  5
16F
330
1F
100
AcDbEntity
  8
0
  6
Continuous
 62
     7
370
    15
100
AcDbLine
 10
7.9
 20
7.61
 30
0.0
 11
7.9
 21
9.49
 31
0.0
  0
LINE
  5
170
330
1F
100
AcDbEntity
  8
0
  6
Continuous
 62
     7
370
    15
100
AcDbLine
 10
7.9
 20
7.6
 30
0.0
 11
7.9
 21
7.61
 31
0.0
  0
LINE
  5
171
330
1F
100
AcDbEntity
  8
0
  6
Continuous
 62
     7
370
    15
100
AcDbLine
 10
8.2796321861
 20
7.6
 30
0.0
 11
7.9
 21
7.6
 31
0.0
  0
LINE
  5
172
330
1F
100
AcDbEntity
  8
0
  6
Continuous
 62
     7
370
    15
100
AcDbLine
 10
7.9
 20
9.49
 30
0.0
 11
7.9
 21
9.5
 31
0.0
  0
LINE
  5
173
330
1F
100
AcDbEntity
  8
0
  6
Continuous
 62
     7
370
    15
100
AcDbLine
 10
7.9
 20
9.5
 30
0.0
 11
8.2796321861
 21
9.5
 31
0.0
  0
LINE
  5
174
330
1F
100
AcDbEntity
  8
0
  6
Continuous
 62
     7
370
    15
100
AcDbLine
 10
7.9
 20
9.49
 30
0.0
 11
7.525
 21
9.49
 31
0.0
  0
ARC
  5
175
330
1F
100
AcDbEntity
  8
0
  6
Continuous
 62
     7
370
    15
100
AcDbCircle
 10
7.535
 20
9.49
 30
0.0
 40
0.0099999999999998
100
AcDbArc
 50
90.0
 51
180.0
  0
LINE
  5
176
330
1F
100
AcDbEntity
  8
0
  6
Continuous
 62
     7
370
    15
100
AcDbLine
 10
7.535
 20
9.5
 30
0.0
 11
7.9
 21
9.5
 31
0.0
  0
LINE
  5
177
330
1F
100
AcDbEntity
  8
0
  6
Continuous
 62
     7
370
    15
100
AcDbLine
 10
7.525
 20
7.61
 30
0.0
 11
7.9
 21
7.61
 31
0.0
  0
LINE
  5
178
330
1F
100
AcDbEntity
  8
0
  6
Continuous
 62
     7
370
    15
100
AcDbLine
 10
7.525
 20
7.61
 30
0.0
 11
7.525
 21
9.49
 31
0.0
  0
ARC
  5
179
330
1F
100
AcDbEntity
  8
0
  6
Continuous
 62
     7
370
    15
100
AcDbCircle
 10
7.535
 20
7.61
 30
0.0
 40
0.0099999999999998
100
AcDbArc
 50
180.0
 51
270.0
  0
LINE
  5
17A
330
1F
100
AcDbEntity
  8
0
  6
Continuous
 62
     7
370
    15
100
AcDbLine
 10
7.9
 20
7.6
 30
0.0
 11
7.535
 21
7.6
 31
0.0
  0
ENDSEC
  0
SECTION
  2
OBJECTS
  0
DICTIONARY
  5
C
330
0
100
AcDbDictionary
281
     1
  3
ACAD_GROUP
350
D
  3
ACAD_LAYOUT
350
1A
  3
ACAD_MLINESTYLE
350
17
  3
ACAD_PLOTSETTINGS
350
19
  3
ACAD_PLOTSTYLENAME
350
E
  0
DICTIONARY
  5
D
102
{ACAD_REACTORS
330
C
102
}
330
C
100
AcDbDictionary
281
     1
  0
DICTIONARY
  5
1A
102
{ACAD_REACTORS
330
C
102
}
330
C
100
AcDbDictionary
281
     1
  3
Layout1
350
1E
  3
Layout2
350
26
  3
Model
350
22
  0
DICTIONARY
  5
17
102
{ACAD_REACTORS
330
C
102
}
330
C
100
AcDbDictionary
281
     1
  3
Standard
350
18
  0
DICTIONARY
  5
19
102
{ACAD_REACTORS
330
C
102
}
330
C
100
AcDbDictionary
281
     1
  0
ACDBDICTIONARYWDFLT
  5
E
102
{ACAD_REACTORS
330
C
102
}
330
C
100
AcDbDictionary
281
     1
  3
Normal
350
F
100
AcDbDictionaryWithDefault
340
F
  0
LAYOUT
  5
1E
102
{ACAD_REACTORS
330
1A
102
}
330
1A
100
AcDbPlotSettings
  1

  2
none_device
  4

  6

 40
0.0
 41
0.0
 42
0.0
 43
0.0
 44
0.0
 45
0.0
 46
0.0
 47
0.0
 48
0.0
 49
0.0
140
0.0
141
0.0
142
1.0
143
1.0
 70
   688
 72
     0
 73
     0
 74
     5
  7

 75
    16
147
1.0
148
0.0
149
0.0
100
AcDbLayout
  1
Layout1
 70
     1
 71
     1
 10
0.0
 20
0.0
 11
12.0
 21
9.0
 12
0.0
 22
0.0
 32
0.0
 14
1.0000000000E+20
 24
1.0000000000E+20
 34
1.0000000000E+20
 15
-1.0000000000E+20
 25
-1.0000000000E+20
 35
-1.0000000000E+20
146
0.0
 13
0.0
 23
0.0
 33
0.0
 16
1.0
 26
0.0
 36
0.0
 17
0.0
 27
1.0
 37
0.0
 76
     0
330
1B
  0
LAYOUT
  5
26
102
{ACAD_REACTORS
330
1A
102
}
330
1A
100
AcDbPlotSettings
  1

  2
none_device
  4

  6

 40
0.0
 41
0.0
 42
0.0
 43
0.0
 44
0.0
 45
0.0
 46
0.0
 47
0.0
 48
0.0
 49
0.0
140
0.0
141
0.0
142
1.0
143
1.0
 70
   688
 72
     0
 73
     0
 74
     5
  7

 75
    16
147
1.0
148
0.0
149
0.0
100
AcDbLayout
  1
Layout2
 70
     1
 71
     2
 10
0.0
 20
0.0
 11
0.0
 21
0.0
 12
0.0
 22
0.0
 32
0.0
 14
0.0
 24
0.0
 34
0.0
 15
0.0
 25
0.0
 35
0.0
146
0.0
 13
0.0
 23
0.0
 33
0.0
 16
1.0
 26
0.0
 36
0.0
 17
0.0
 27
1.0
 37
0.0
 76
     0
330
23
  0
LAYOUT
  5
22
102
{ACAD_REACTORS
330
1A
102
}
330
1A
100
AcDbPlotSettings
  1

  2
none_device
  4

  6

 40
0.0
 41
0.0
 42
0.0
 43
0.0
 44
0.0
 45
0.0
 46
0.0
 47
0.0
 48
0.0
 49
0.0
140
0.0
141
0.0
142
1.0
143
1.0
 70
  1712
 72
     0
 73
     0
 74
     0
  7

 75
     0
147
1.0
148
0.0
149
0.0
100
AcDbLayout
  1
Model
 70
     1
 71
     0
 10
0.0
 20
0.0
 11
17.0
 21
11.0
 12
0.0
 22
0.0
 32
0.0
 14
0.0
 24
0.0
 34
0.0
 15
17.0
 25
11.0
 35
0.0
146
0.0
 13
0.0
 23
0.0
 33
0.0
 16
1.0
 26
0.0
 36
0.0
 17
0.0
 27
1.0
 37
0.0
 76
     0
330
1F
331
29
  0
MLINESTYLE
  5
18
102
{ACAD_REACTORS
330
17
102
}
330
17
100
AcDbMlineStyle
  2
Standard
 70
     0
  3

 62
   256
 51
90.0
 52
90.0
 71
     2
 49
0.5
 62
   256
  6
BYLAYER
 49
-0.5
 62
   256
  6
BYLAYER
  0
ACDBPLACEHOLDER
  5
F
102
{ACAD_REACTORS
330
E
102
}
330
E
  0
ENDSEC
  0
EOF
